<svg  viewBox="0 0 500 500" fill="none" xmlns="http://www.w3.org/2000/svg">
<path d="M89.9196 407.24C180.05 454.32 326.18 454.32 416.31 407.24C506.44 360.16 506.44 283.81 416.31 236.73C326.18 189.65 180.05 189.64 89.9096 236.73C-0.230423 283.82 -0.220428 360.15 89.9196 407.24Z" fill="#FAFAFA"/>
<path d="M184.59 411.33C200.07 411.33 212.62 405.349 212.62 397.97C212.62 390.592 200.07 384.61 184.59 384.61C169.109 384.61 156.56 390.592 156.56 397.97C156.56 405.349 169.109 411.33 184.59 411.33Z" fill="#EBEBEB"/>
<path d="M91.7501 253.91L96.3701 252.74C97.8412 246.637 98.8011 240.422 99.2401 234.16C100.43 219.16 94.6001 207.84 87.3401 203.16C78.7201 197.61 74.2001 202.68 74.7201 206.67C75.2701 210.88 79.8201 216.83 81.9901 220.94C85.1301 226.89 89.8901 235.91 91.7501 253.91Z" fill="#33B2F8"/>
<path opacity="0.2" d="M91.7501 253.91L96.3701 252.74C97.8412 246.637 98.8011 240.422 99.2401 234.16C100.43 219.16 94.6001 207.84 87.3401 203.16C78.7201 197.61 74.2001 202.68 74.7201 206.67C75.2701 210.88 79.8201 216.83 81.9901 220.94C85.1301 226.89 89.8901 235.91 91.7501 253.91Z" fill="black"/>
<path d="M94.0005 253.69H93.9305C93.8864 253.682 93.8445 253.665 93.807 253.64C93.7695 253.615 93.7373 253.583 93.7122 253.546C93.6871 253.509 93.6696 253.467 93.6608 253.423C93.6519 253.379 93.6518 253.334 93.6605 253.29C99.1805 226.6 87.8405 207.57 80.8305 203.76C80.7527 203.716 80.6954 203.643 80.671 203.557C80.6467 203.471 80.6573 203.378 80.7005 203.3C80.7205 203.26 80.7485 203.224 80.7828 203.195C80.8172 203.165 80.8571 203.144 80.9002 203.131C80.9433 203.117 80.9887 203.113 81.0334 203.118C81.0782 203.123 81.1214 203.138 81.1605 203.16C88.5405 207.16 99.9805 226.05 94.3305 253.43C94.311 253.503 94.2684 253.568 94.2089 253.615C94.1493 253.662 94.0762 253.688 94.0005 253.69Z" fill="white"/>
<path d="M91.7504 253.91C92.0819 248.906 91.4331 243.886 89.8404 239.13C87.2204 231.78 83.1104 224.97 74.8404 222.45C66.5704 219.93 60.1404 225.91 64.2104 231.39C68.2804 236.87 83.4304 240.28 86.3804 257.47L91.7504 253.91Z" fill="#33B2F8"/>
<path d="M89.4001 255.82C89.3108 255.81 89.2288 255.766 89.1711 255.697C89.1134 255.628 89.0844 255.54 89.0901 255.45C90.3301 241.61 80.9901 227.88 68.7101 225.45C68.666 225.442 68.624 225.425 68.5866 225.4C68.5491 225.375 68.5169 225.343 68.4918 225.306C68.4667 225.269 68.4492 225.227 68.4403 225.183C68.4314 225.139 68.4314 225.094 68.4401 225.05C68.4471 225.005 68.4633 224.962 68.4876 224.924C68.512 224.886 68.5439 224.853 68.5814 224.828C68.6189 224.803 68.6612 224.785 68.7057 224.777C68.7502 224.769 68.7959 224.77 68.8401 224.78C81.4501 227.26 91.0301 241.32 89.7701 255.49C89.7704 255.537 89.7607 255.583 89.7417 255.626C89.7227 255.669 89.6947 255.707 89.6597 255.739C89.6247 255.77 89.5834 255.793 89.5387 255.807C89.4939 255.821 89.4466 255.826 89.4001 255.82Z" fill="white"/>
<path d="M391.221 365.6C391.221 365.6 392.791 350.76 402.041 340.79C411.291 330.82 421.181 330.91 425.041 334.49C428.901 338.07 424.931 343.64 416.341 349.07C408.981 353.72 399.251 364.27 396.261 371.39L391.221 365.6Z" fill="#33B2F8"/>
<path opacity="0.2" d="M391.221 365.6C391.221 365.6 392.791 350.76 402.041 340.79C411.291 330.82 421.181 330.91 425.041 334.49C428.901 338.07 424.931 343.64 416.341 349.07C408.981 353.72 399.251 364.27 396.261 371.39L391.221 365.6Z" fill="black"/>
<path d="M393.35 368.401H393.26C393.173 368.381 393.097 368.329 393.048 368.254C392.999 368.179 392.982 368.088 393 368.001C396.93 352.861 410.13 337.611 421.25 335.371C421.294 335.361 421.339 335.361 421.384 335.369C421.428 335.378 421.47 335.395 421.507 335.419C421.545 335.444 421.577 335.476 421.603 335.513C421.628 335.55 421.646 335.592 421.655 335.636C421.664 335.68 421.665 335.725 421.656 335.769C421.648 335.813 421.631 335.855 421.606 335.893C421.582 335.931 421.55 335.963 421.513 335.988C421.476 336.014 421.434 336.031 421.39 336.041C410.5 338.241 397.54 353.261 393.66 368.181C393.636 368.244 393.594 368.299 393.539 368.338C393.483 368.377 393.418 368.399 393.35 368.401Z" fill="white"/>
<path d="M392.82 400.38C392.82 400.38 399.65 402.32 404.58 398.93C408.79 396.03 407.74 392.93 408.23 390.56C408.72 388.19 410.78 386.89 414.23 386.44C418.47 385.89 422.43 385.22 423.17 380.74C423.83 376.79 417.31 374.66 419.25 370.8C420.72 367.89 424.02 365.95 426.74 363.8C429.46 361.65 427.84 356.95 421.34 356.94C413.28 356.94 411.6 359.94 408.01 360.41C404.42 360.88 402.41 358.81 398.48 359.33C394.13 359.9 392 364.06 391.9 369.25L392.82 400.38Z" fill="#33B2F8"/>
<path d="M392.37 385.57H392.26C392.217 385.556 392.178 385.533 392.144 385.502C392.11 385.472 392.082 385.436 392.062 385.395C392.043 385.354 392.032 385.309 392.03 385.264C392.028 385.218 392.035 385.173 392.05 385.13C395.64 375 415 360.9 423.11 359.46C423.155 359.452 423.201 359.452 423.246 359.462C423.29 359.471 423.332 359.489 423.37 359.516C423.407 359.542 423.439 359.575 423.463 359.614C423.487 359.652 423.503 359.695 423.51 359.74C423.519 359.785 423.519 359.831 423.509 359.875C423.5 359.92 423.481 359.962 423.455 360C423.429 360.037 423.396 360.068 423.357 360.093C423.318 360.117 423.275 360.133 423.23 360.14C415.23 361.56 396.23 375.4 392.7 385.34C392.675 385.407 392.629 385.465 392.571 385.506C392.512 385.547 392.442 385.569 392.37 385.57Z" fill="white"/>
<path d="M418.83 379.63C418.778 379.643 418.723 379.643 418.67 379.63C413.67 377.04 405.11 375.15 398.55 376.56C398.464 376.57 398.378 376.548 398.307 376.497C398.236 376.447 398.187 376.372 398.168 376.288C398.15 376.203 398.163 376.114 398.206 376.039C398.249 375.964 398.318 375.907 398.4 375.88C405.12 374.44 413.84 376.37 418.99 379.02C419.031 379.04 419.066 379.068 419.096 379.102C419.125 379.136 419.147 379.176 419.161 379.219C419.175 379.261 419.181 379.307 419.177 379.351C419.173 379.396 419.161 379.44 419.14 379.48C419.105 379.528 419.058 379.567 419.004 379.593C418.95 379.619 418.89 379.632 418.83 379.63Z" fill="white"/>
<path d="M402 373C401.91 373 401.823 372.965 401.76 372.901C401.696 372.837 401.66 372.75 401.66 372.66C401.66 366.61 399.66 363.66 399.61 363.66C399.557 363.586 399.536 363.494 399.551 363.404C399.566 363.314 399.616 363.233 399.69 363.18C399.764 363.127 399.857 363.106 399.947 363.121C400.037 363.136 400.117 363.186 400.17 363.26C400.26 363.38 402.36 366.39 402.35 372.68C402.342 372.768 402.302 372.849 402.237 372.909C402.173 372.968 402.088 373.001 402 373Z" fill="white"/>
<path d="M149.23 33.18L149.83 32.83C150.366 32.5585 150.959 32.417 151.56 32.417C152.161 32.417 152.754 32.5585 153.29 32.83L251.38 89.47C251.884 89.799 252.303 90.2421 252.603 90.7633C252.904 91.2845 253.078 91.8692 253.11 92.47V229.18C253.076 229.78 252.902 230.365 252.601 230.885C252.301 231.406 251.883 231.85 251.38 232.18L250.78 232.52C250.245 232.796 249.652 232.94 249.05 232.94C248.448 232.94 247.855 232.796 247.32 232.52L149.23 175.89C148.725 175.562 148.305 175.119 148.004 174.598C147.704 174.076 147.531 173.491 147.5 172.89V36.18C147.532 35.579 147.705 34.994 148.006 34.4727C148.306 33.9513 148.726 33.5084 149.23 33.18Z" fill="#FAFAFA"/>
<path d="M253.11 160.82V92.4698C253.093 91.8649 252.917 91.2752 252.6 90.7598L247 93.9998V232.35L247.31 232.52C247.845 232.796 248.438 232.94 249.04 232.94C249.642 232.94 250.235 232.796 250.77 232.52L251.37 232.18C251.873 231.85 252.291 231.406 252.591 230.885C252.892 230.364 253.066 229.78 253.1 229.18L253.11 160.82Z" fill="#E0E0E0"/>
<path d="M149.23 35.18L247.32 91.81C247.823 92.1402 248.241 92.5836 248.541 93.1046C248.842 93.6255 249.016 94.2096 249.05 94.81V231.52C249.05 232.63 248.27 233.08 247.32 232.52L149.23 175.89C148.725 175.562 148.305 175.119 148.004 174.598C147.704 174.077 147.531 173.491 147.5 172.89V36.18C147.5 35.08 148.27 34.63 149.23 35.18Z" fill="#F5F5F5"/>
<path d="M161.41 51.6003L235.13 94.1603C235.635 94.4881 236.055 94.9309 236.355 95.4524C236.656 95.9738 236.829 96.5591 236.86 97.1603V102.54C236.86 103.64 236.09 104.09 235.13 103.54L161.41 61.0003C160.907 60.6701 160.489 60.2268 160.188 59.7058C159.888 59.1848 159.714 58.6007 159.68 58.0003V52.6003C159.68 51.4903 160.46 51.0003 161.41 51.6003Z" fill="#E0E0E0"/>
<path d="M177.021 99.3767C180.986 97.0874 180.986 89.6638 177.02 82.7955C173.055 75.9273 166.626 72.2152 162.661 74.5044C158.696 76.7936 158.696 84.2173 162.661 91.0855C166.627 97.9538 173.056 101.666 177.021 99.3767Z" fill="#E0E0E0"/>
<path d="M169.92 79.0001C167.92 77.8601 166.36 78.7801 166.36 81.0501C166.424 82.2866 166.78 83.4904 167.399 84.5628C168.018 85.6352 168.882 86.5459 169.92 87.2201C171.92 88.3601 173.48 87.4401 173.48 85.2201C173.422 83.9754 173.069 82.7622 172.451 81.6808C171.832 80.5993 170.964 79.6805 169.92 79.0001Z" fill="#33B2F8"/>
<path d="M170.85 88.8898L168.85 87.7198C165.61 85.8598 162.99 87.3698 162.99 91.0998V91.6098C164.672 94.4866 167.03 96.9099 169.86 98.6698C172.51 100.2 174.86 100.41 176.72 99.5298V98.9998C176.604 96.9722 176.012 95.0005 174.992 93.2441C173.972 91.4878 172.553 89.9961 170.85 88.8898Z" fill="#33B2F8"/>
<path d="M161.85 103.45L177.85 112.68C178.467 113.069 178.984 113.597 179.359 114.223C179.734 114.848 179.957 115.553 180.01 116.28C180.01 117.57 179.01 118.06 177.85 117.37L161.85 108.15C161.231 107.763 160.712 107.235 160.335 106.609C159.958 105.984 159.733 105.279 159.68 104.55C159.68 103.25 160.65 102.76 161.85 103.45Z" fill="#E0E0E0"/>
<path d="M161.85 112.83L177.85 122.06C178.466 122.448 178.982 122.975 179.357 123.598C179.732 124.222 179.956 124.925 180.01 125.65C180.01 126.95 179.01 127.44 177.85 126.75L161.85 117.52C161.23 117.134 160.711 116.606 160.334 115.98C159.957 115.355 159.733 114.649 159.68 113.92C159.68 112.63 160.65 112.14 161.85 112.83Z" fill="#E0E0E0"/>
<path d="M161.85 122.2L177.85 131.43C178.461 131.817 178.974 132.341 179.347 132.961C179.72 133.581 179.944 134.279 180 135C180 136.29 179 136.78 177.84 136.09L161.84 126.87C161.221 126.483 160.702 125.955 160.325 125.329C159.948 124.704 159.724 123.998 159.67 123.27C159.68 122 160.65 121.51 161.85 122.2Z" fill="#E0E0E0"/>
<path d="M161.85 131.58L177.85 140.81C178.464 141.199 178.978 141.726 179.352 142.35C179.725 142.973 179.947 143.676 180 144.4C180 145.7 179 146.19 177.84 145.5L161.84 136.27C161.22 135.884 160.701 135.356 160.324 134.73C159.947 134.105 159.723 133.399 159.67 132.67C159.68 131.38 160.65 130.89 161.85 131.58Z" fill="#E0E0E0"/>
<path d="M161.85 145.66L177.85 154.88C178.478 155.292 179.001 155.846 179.376 156.498C179.751 157.149 179.968 157.879 180.01 158.63V167.7C180.01 169.08 179.01 169.64 177.85 168.95L161.85 159.73C161.218 159.32 160.693 158.767 160.315 158.115C159.938 157.463 159.72 156.732 159.68 155.98V146.91C159.68 145.52 160.65 145 161.85 145.66Z" fill="#33B2F8"/>
<path d="M194.34 84.6796L234.7 108C235.316 108.387 235.832 108.914 236.207 109.538C236.582 110.161 236.806 110.864 236.86 111.59C236.86 112.89 235.86 113.38 234.7 112.69L194.34 89.3896C193.724 89.002 193.208 88.4752 192.832 87.8517C192.457 87.2282 192.234 86.5253 192.18 85.7996C192.18 84.4796 193.15 83.9996 194.34 84.6796Z" fill="#33B2F8"/>
<path d="M194.34 94.0596L234.7 117.36C235.316 117.747 235.832 118.274 236.207 118.898C236.582 119.521 236.806 120.224 236.86 120.95C236.86 122.25 235.86 122.74 234.7 122.05L194.34 98.7496C193.724 98.362 193.208 97.8352 192.832 97.2117C192.457 96.5882 192.234 95.8853 192.18 95.1596C192.18 93.8596 193.15 93.3696 194.34 94.0596Z" fill="#33B2F8"/>
<path d="M194.34 103.44L234.7 126.74C235.316 127.127 235.832 127.654 236.207 128.277C236.582 128.901 236.806 129.604 236.86 130.33C236.86 131.63 235.86 132.119 234.7 131.429L194.34 108.13C193.724 107.742 193.208 107.215 192.832 106.592C192.457 105.968 192.234 105.265 192.18 104.54C192.18 103.24 193.15 102.75 194.34 103.44Z" fill="#33B2F8"/>
<path d="M332.45 119.7L336.25 117.51C336.921 117.17 337.663 116.993 338.415 116.993C339.167 116.993 339.909 117.17 340.58 117.51L425.58 166.61C426.211 167.02 426.737 167.574 427.114 168.225C427.491 168.877 427.709 169.609 427.75 170.36V277.93C427.709 278.682 427.491 279.414 427.114 280.065C426.737 280.717 426.211 281.27 425.58 281.68L421.79 283.87C421.119 284.21 420.377 284.388 419.625 284.388C418.873 284.388 418.131 284.21 417.46 283.87L332.41 234.77C331.781 234.358 331.259 233.804 330.883 233.153C330.508 232.501 330.291 231.771 330.25 231.02V123.45C330.296 122.696 330.519 121.964 330.901 121.312C331.283 120.66 331.814 120.108 332.45 119.7Z" fill="#455A64"/>
<path d="M427.78 224.141V170.361C427.755 169.604 427.535 168.867 427.14 168.221L415.59 174.891V282.771L417.49 283.871C418.161 284.211 418.903 284.388 419.655 284.388C420.407 284.388 421.149 284.211 421.82 283.871L425.61 281.681C426.241 281.271 426.767 280.717 427.144 280.066C427.521 279.414 427.739 278.682 427.78 277.931V224.141Z" fill="#263238"/>
<path d="M332.45 122.201L417.45 171.301C418.079 171.713 418.602 172.267 418.977 172.918C419.352 173.57 419.569 174.3 419.61 175.051V282.621C419.61 284.001 418.61 284.561 417.45 283.871L332.4 234.771C331.772 234.358 331.249 233.804 330.874 233.153C330.498 232.502 330.282 231.771 330.24 231.021V123.451C330.29 122.071 331.26 121.511 332.45 122.201Z" fill="#37474F"/>
<path d="M411.39 174.77L338.54 132.71C337.34 132.02 336.38 132.58 336.38 133.96V215.74C336.421 216.491 336.638 217.221 337.013 217.873C337.388 218.524 337.911 219.078 338.54 219.49L411.39 261.55C412.59 262.24 413.56 261.68 413.56 260.3V178.52C413.519 177.769 413.301 177.037 412.924 176.385C412.547 175.734 412.021 175.18 411.39 174.77Z" fill="white"/>
<path d="M353.24 151C355.279 152.333 356.976 154.128 358.192 156.239C359.408 158.35 360.11 160.717 360.24 163.15C360.24 167.63 357.1 169.44 353.24 167.2C351.2 165.868 349.503 164.074 348.287 161.962C347.07 159.851 346.369 157.483 346.24 155.05C346.23 150.56 349.37 148.75 353.24 151Z" fill="#33B2F8"/>
<path d="M371.46 200.761L358.46 181.101C356.35 177.921 352.71 177.751 350.32 180.731L336.38 198.001V215.771C336.421 216.522 336.639 217.254 337.016 217.906C337.393 218.557 337.918 219.111 338.55 219.521L411.39 261.521C412.59 262.211 413.56 261.651 413.56 260.271V214.171L395.46 175.861C393.83 172.411 390.77 172.171 388.64 175.331L371.46 200.761Z" fill="#33B2F8"/>
<path d="M350.87 362.36L374.7 348.6C375.961 347.779 377.01 346.672 377.763 345.368C378.515 344.065 378.949 342.603 379.03 341.1V205.69C378.948 204.188 378.513 202.726 377.761 201.423C377.008 200.12 375.96 199.012 374.7 198.19L212.76 104.69C211.418 104.009 209.934 103.654 208.43 103.654C206.925 103.654 205.442 104.009 204.1 104.69L180.26 118.45C179 119.272 177.951 120.38 177.199 121.683C176.447 122.986 176.012 124.448 175.93 125.95V261.36C176.012 262.862 176.447 264.324 177.199 265.627C177.951 266.93 179 268.038 180.26 268.86L342.26 362.36C343.595 363.032 345.069 363.383 346.565 363.383C348.06 363.383 349.534 363.032 350.87 362.36Z" fill="#455A64"/>
<path d="M378.999 205.69C378.948 204.183 378.514 202.714 377.739 201.42L342.479 221.8V362.48C343.794 363.096 345.232 363.405 346.683 363.384C348.135 363.363 349.563 363.013 350.859 362.36L374.709 348.59C375.962 347.766 377.004 346.659 377.749 345.357C378.494 344.056 378.923 342.598 378.999 341.1V205.69Z" fill="#37474F"/>
<path d="M342.21 217L180.26 123.5C177.87 122.12 175.93 123.24 175.93 126V261.36C176.012 262.862 176.447 264.324 177.199 265.627C177.951 266.93 179 268.038 180.26 268.86L342.26 362.36C344.65 363.74 346.59 362.62 346.59 359.86V224.45C346.494 222.952 346.048 221.497 345.288 220.203C344.527 218.909 343.472 217.812 342.21 217Z" fill="#37474F"/>
<path d="M356.42 208.749C357.68 209.572 358.728 210.679 359.481 211.982C360.233 213.285 360.668 214.747 360.75 216.249V356.649L364.81 354.309V213.899C364.728 212.397 364.293 210.935 363.541 209.632C362.788 208.329 361.74 207.222 360.48 206.399L194.2 110.399L190.14 112.749L356.42 208.749Z" fill="#263238"/>
<path d="M360.48 206.4L194.48 110.56L190.29 112.83L356.43 208.75C357.709 209.547 358.762 210.659 359.49 211.98L363.55 209.64C362.823 208.313 361.765 207.197 360.48 206.4Z" fill="#37474F"/>
<path d="M335.31 184.83L332.45 183.18C331.779 182.84 331.037 182.663 330.285 182.663C329.533 182.663 328.791 182.84 328.12 183.18L317.12 189.52L315.29 188.97V191.31C315.315 191.58 315.412 191.838 315.57 192.058C315.728 192.277 315.942 192.451 316.19 192.56L319.98 194.75C320.651 195.09 321.393 195.267 322.145 195.267C322.897 195.267 323.639 195.09 324.31 194.75L336.23 187.87C336.476 187.76 336.688 187.585 336.844 187.366C337.001 187.146 337.096 186.889 337.12 186.62V184.27L335.31 184.83Z" fill="#263238"/>
<path d="M336.25 183L332.45 180.81C331.779 180.47 331.037 180.293 330.285 180.293C329.533 180.293 328.791 180.47 328.12 180.81L316.21 187.7C315.948 187.786 315.719 187.953 315.557 188.176C315.395 188.4 315.308 188.669 315.308 188.945C315.308 189.221 315.395 189.49 315.557 189.714C315.719 189.938 315.948 190.104 316.21 190.19L320 192.39C320.671 192.73 321.413 192.907 322.165 192.907C322.917 192.907 323.659 192.73 324.33 192.39L336.25 185.5C336.511 185.412 336.738 185.243 336.899 185.019C337.06 184.795 337.146 184.526 337.146 184.25C337.146 183.974 337.06 183.705 336.899 183.481C336.738 183.257 336.511 183.089 336.25 183Z" fill="#455A64"/>
<path d="M237.82 128.55L235 126.9C234.327 126.56 233.584 126.383 232.83 126.383C232.076 126.383 231.333 126.56 230.66 126.9L219.66 133.24L217.83 132.69V135C217.855 135.27 217.952 135.528 218.11 135.748C218.268 135.967 218.482 136.141 218.73 136.25L222.52 138.44C223.191 138.78 223.933 138.957 224.685 138.957C225.437 138.957 226.179 138.78 226.85 138.44L238.77 131.56C239.017 131.451 239.23 131.278 239.387 131.058C239.544 130.838 239.638 130.579 239.66 130.31V128L237.82 128.55Z" fill="#263238"/>
<path d="M238.76 126.749L234.96 124.549C234.289 124.209 233.547 124.032 232.795 124.032C232.043 124.032 231.301 124.209 230.63 124.549L218.72 131.439C218.459 131.528 218.232 131.696 218.071 131.92C217.911 132.145 217.824 132.414 217.824 132.689C217.824 132.965 217.911 133.234 218.071 133.458C218.232 133.683 218.459 133.851 218.72 133.939L222.51 136.129C223.181 136.469 223.923 136.647 224.675 136.647C225.427 136.647 226.169 136.469 226.84 136.129L238.76 129.249C239.021 129.161 239.248 128.993 239.409 128.768C239.57 128.544 239.656 128.275 239.656 127.999C239.656 127.724 239.57 127.455 239.409 127.23C239.248 127.006 239.021 126.838 238.76 126.749Z" fill="#455A64"/>
<path d="M269.359 128V142.07L261.239 146.76V125.3C261.239 124.19 262.009 123.75 262.969 124.3L269.359 128Z" fill="#263238"/>
<path d="M312 142.909V169.059L306 172.549L301.94 170.199V148.749C301.906 148.149 301.731 147.565 301.431 147.044C301.131 146.523 300.712 146.08 300.21 145.749L269.36 127.999L263 124.299C262 123.749 261.27 124.189 261.27 125.299V146.749L257.2 144.399V118.259C257.19 118.146 257.19 118.033 257.2 117.919C257.28 117.38 257.474 116.864 257.769 116.406C258.064 115.947 258.453 115.556 258.91 115.259L261.48 113.769C262.016 113.498 262.609 113.356 263.21 113.356C263.811 113.356 264.403 113.498 264.94 113.769L310.22 139.909C310.732 140.233 311.161 140.674 311.47 141.196C311.779 141.717 311.961 142.304 312 142.909Z" fill="#455A64"/>
<path d="M305.92 146.4V172.55L301.86 170.2V148.75C301.826 148.15 301.651 147.566 301.351 147.045C301.051 146.524 300.632 146.08 300.13 145.75L269.36 128L263 124.3C262 123.75 261.27 124.19 261.27 125.3V146.75L257.2 144.4V118.26C257.19 118.147 257.19 118.033 257.2 117.92C257.35 117.07 258.06 116.77 258.91 117.26L304.19 143.4C304.692 143.731 305.11 144.174 305.41 144.695C305.71 145.216 305.885 145.8 305.92 146.4Z" fill="#37474F"/>
<path d="M366.849 409.4L370.909 407.05L366.849 290C366.806 289.248 366.587 288.518 366.211 287.866C365.834 287.215 365.309 286.661 364.679 286.25L287.769 241.84C286.42 240.975 285.372 239.714 284.769 238.23L282.339 231.23C281.739 229.751 280.69 228.499 279.339 227.65L243.089 207.37C241.889 206.7 240.899 207.27 240.899 208.65V334.2C240.943 334.951 241.163 335.681 241.539 336.332C241.916 336.983 242.44 337.537 243.069 337.95L366.849 409.4Z" fill="#33B2F8"/>
<path opacity="0.2" d="M366.849 409.4L370.909 407.05L366.849 290C366.806 289.248 366.587 288.518 366.211 287.866C365.834 287.215 365.309 286.661 364.679 286.25L287.769 241.84C286.42 240.975 285.372 239.714 284.769 238.23L282.339 231.23C281.739 229.751 280.69 228.499 279.339 227.65L243.089 207.37C241.889 206.7 240.899 207.27 240.899 208.65V334.2C240.943 334.951 241.163 335.681 241.539 336.332C241.916 336.983 242.44 337.537 243.069 337.95L366.849 409.4Z" fill="black"/>
<path d="M307.65 211.06L393.55 260.66C394.055 260.988 394.475 261.43 394.775 261.952C395.076 262.473 395.249 263.059 395.28 263.66V405.06C395.28 406.17 394.51 406.61 393.55 406.06L307.65 356.47C307.147 356.14 306.728 355.697 306.428 355.176C306.127 354.655 305.953 354.07 305.92 353.47V212.06C305.92 211 306.69 210.51 307.65 211.06Z" fill="white"/>
<g opacity="0.5">
<path opacity="0.5" d="M394.329 406.8C393.976 406.786 393.632 406.683 393.329 406.5L307.429 356.9C306.846 356.53 306.36 356.025 306.012 355.428C305.664 354.831 305.464 354.16 305.429 353.47V212.06C305.385 211.754 305.433 211.443 305.567 211.165C305.702 210.888 305.917 210.657 306.184 210.503C306.451 210.349 306.758 210.278 307.066 210.301C307.374 210.324 307.667 210.438 307.909 210.63L393.809 260.22C394.393 260.592 394.879 261.099 395.227 261.697C395.575 262.295 395.774 262.968 395.809 263.66V405.06C395.833 405.363 395.777 405.667 395.645 405.941C395.513 406.215 395.311 406.449 395.059 406.62C394.837 406.745 394.584 406.807 394.329 406.8ZM306.879 211.33C306.81 211.314 306.738 211.314 306.669 211.33C306.576 211.416 306.504 211.524 306.461 211.644C306.417 211.764 306.403 211.893 306.419 212.02V353.47C306.457 353.976 306.609 354.468 306.866 354.906C307.122 355.345 307.476 355.719 307.899 356L393.799 405.6C393.901 405.679 394.021 405.732 394.149 405.753C394.277 405.774 394.407 405.763 394.529 405.72C394.624 405.634 394.697 405.526 394.741 405.406C394.784 405.286 394.797 405.156 394.779 405.03V263.66C394.748 263.146 394.598 262.647 394.341 262.201C394.084 261.755 393.728 261.375 393.299 261.09L307.399 211.5C307.245 211.396 307.065 211.337 306.879 211.33Z" fill="#E0E0E0"/>
</g>
<path d="M316.209 230.069L356.559 253.369C357.177 253.757 357.695 254.285 358.071 254.91C358.446 255.536 358.668 256.242 358.719 256.969C358.719 258.259 357.719 258.749 356.559 258.059L316.209 234.769C315.59 234.382 315.071 233.854 314.694 233.229C314.317 232.603 314.093 231.898 314.039 231.169C313.999 229.869 314.999 229.379 316.209 230.069Z" fill="#37474F"/>
<path d="M316.21 244.15L385 283.86C385.618 284.246 386.137 284.772 386.514 285.396C386.891 286.019 387.115 286.723 387.17 287.45C387.17 288.75 386.17 289.24 385.01 288.55L316.22 248.84C315.6 248.453 315.081 247.925 314.704 247.3C314.327 246.674 314.102 245.968 314.05 245.24C314 244 315 243.46 316.21 244.15Z" fill="#E0E0E0"/>
<path d="M316.21 258.219L385 297.929C385.618 298.315 386.137 298.841 386.514 299.465C386.891 300.089 387.115 300.792 387.17 301.519C387.17 302.819 386.17 303.309 385.01 302.619L316.22 262.909C315.6 262.522 315.081 261.995 314.704 261.369C314.327 260.743 314.102 260.038 314.05 259.309C314 257.999 315 257.529 316.21 258.219Z" fill="#E0E0E0"/>
<path d="M316.209 272.29L384.999 312C385.619 312.386 386.138 312.914 386.515 313.54C386.892 314.165 387.116 314.871 387.169 315.6C387.169 316.89 386.169 317.38 385.009 316.69L316.209 277C315.591 276.614 315.072 276.087 314.695 275.464C314.318 274.84 314.094 274.136 314.039 273.41C313.999 272.09 314.999 271.6 316.209 272.29Z" fill="#E0E0E0"/>
<path d="M316.21 286.359L385 326.069C385.619 326.456 386.139 326.984 386.516 327.61C386.893 328.235 387.117 328.941 387.17 329.669C387.17 330.959 386.17 331.449 385.01 330.759L316.22 291.049C315.601 290.663 315.083 290.137 314.706 289.514C314.329 288.89 314.104 288.186 314.05 287.459C314 286.159 315 285.669 316.21 286.359Z" fill="#E0E0E0"/>
<path d="M316.21 300.43L385 340.14C385.619 340.527 386.138 341.055 386.515 341.681C386.892 342.306 387.116 343.011 387.17 343.74C387.17 345.04 386.17 345.53 385.01 344.84L316.22 305.12C315.601 304.734 315.083 304.208 314.706 303.584C314.329 302.96 314.104 302.257 314.05 301.53C314 300.23 315 299.74 316.21 300.43Z" fill="#E0E0E0"/>
<path d="M316.209 314.509L384.999 354.219C385.617 354.605 386.136 355.131 386.513 355.755C386.89 356.379 387.115 357.082 387.169 357.809C387.169 359.109 386.169 359.599 385.009 358.909L316.209 319.199C315.59 318.812 315.07 318.285 314.693 317.659C314.316 317.033 314.092 316.328 314.039 315.599C313.999 314.309 314.999 313.819 316.209 314.509Z" fill="#E0E0E0"/>
<path d="M316.21 328.579L385 368.289C385.618 368.675 386.137 369.202 386.514 369.825C386.891 370.449 387.115 371.153 387.17 371.879C387.17 373.179 386.17 373.669 385.01 372.979L316.22 333.269C315.6 332.883 315.081 332.355 314.704 331.729C314.327 331.104 314.102 330.398 314.05 329.669C314 328.379 315 327.889 316.21 328.579Z" fill="#E0E0E0"/>
<path d="M295.459 218.089L381.359 267.689C381.866 268.017 382.287 268.459 382.59 268.981C382.892 269.502 383.067 270.088 383.099 270.689V412.089C383.099 413.189 382.319 413.639 381.359 413.089L295.459 363.489C294.956 363.16 294.537 362.717 294.236 362.196C293.935 361.675 293.762 361.09 293.729 360.489V219.089C293.729 217.999 294.509 217.539 295.459 218.089Z" fill="white"/>
<path d="M382.14 413.82C381.786 413.806 381.442 413.703 381.14 413.52L295.239 363.93C294.655 363.559 294.168 363.052 293.82 362.454C293.472 361.855 293.273 361.181 293.239 360.49V219.09C293.2 218.786 293.251 218.477 293.387 218.203C293.523 217.928 293.737 217.7 294.002 217.547C294.268 217.394 294.572 217.323 294.878 217.343C295.184 217.363 295.476 217.473 295.72 217.66L381.619 267.25C382.205 267.62 382.692 268.126 383.04 268.725C383.388 269.324 383.587 269.998 383.619 270.69V412.09C383.643 412.392 383.585 412.696 383.451 412.968C383.317 413.241 383.113 413.473 382.859 413.64C382.64 413.763 382.391 413.826 382.14 413.82ZM294.69 218.35C294.62 218.348 294.55 218.365 294.489 218.4C294.392 218.484 294.317 218.591 294.272 218.711C294.226 218.832 294.212 218.962 294.23 219.09V360.49C294.261 361.003 294.411 361.503 294.668 361.949C294.924 362.394 295.281 362.775 295.709 363.06L381.609 412.66C381.694 412.773 381.817 412.851 381.956 412.88C382.094 412.909 382.238 412.886 382.361 412.816C382.484 412.746 382.577 412.634 382.623 412.5C382.668 412.366 382.664 412.22 382.609 412.09V270.69C382.578 270.175 382.427 269.675 382.168 269.229C381.909 268.783 381.55 268.403 381.119 268.12L295.22 218.52C295.061 218.418 294.878 218.359 294.69 218.35Z" fill="#E0E0E0"/>
<path d="M304 237.1L344.35 260.4C344.97 260.787 345.489 261.314 345.866 261.94C346.243 262.565 346.467 263.271 346.52 264C346.52 265.29 345.52 265.78 344.35 265.09L304 241.79C303.382 241.404 302.863 240.878 302.486 240.254C302.109 239.63 301.884 238.926 301.83 238.2C301.85 236.9 302.82 236.41 304 237.1Z" fill="#E0E0E0"/>
<path d="M304 251.17L372.79 290.88C373.406 291.27 373.922 291.798 374.297 292.424C374.673 293.049 374.896 293.753 374.95 294.48C374.95 295.78 373.95 296.27 372.79 295.58L304 255.86C303.382 255.474 302.863 254.948 302.486 254.324C302.109 253.701 301.884 252.997 301.83 252.27C301.85 251 302.82 250.48 304 251.17Z" fill="#E0E0E0"/>
<path d="M304 265.249L372.81 304.999C373.426 305.387 373.942 305.914 374.317 306.537C374.692 307.161 374.916 307.864 374.97 308.589C374.97 309.889 373.97 310.379 372.81 309.689L304 269.939C303.381 269.552 302.861 269.025 302.484 268.399C302.107 267.774 301.883 267.068 301.83 266.339C301.85 265.049 302.82 264.559 304 265.249Z" fill="#E0E0E0"/>
<path d="M304 279.32L372.81 319C373.426 319.388 373.942 319.914 374.317 320.538C374.692 321.161 374.916 321.864 374.97 322.59C374.97 323.89 373.97 324.38 372.81 323.69L304 284C303.381 283.613 302.861 283.085 302.484 282.46C302.107 281.834 301.883 281.128 301.83 280.4C301.85 279.12 302.82 278.63 304 279.32Z" fill="#E0E0E0"/>
<path d="M304 293.39L372.79 333.1C373.407 333.488 373.924 334.017 374.299 334.642C374.675 335.267 374.898 335.972 374.95 336.7C374.95 337.99 373.95 338.48 372.79 337.79L304 298.08C303.382 297.694 302.863 297.168 302.486 296.544C302.109 295.92 301.884 295.216 301.83 294.49C301.85 293.19 302.82 292.7 304 293.39Z" fill="#E0E0E0"/>
<path d="M304 307.459L372.79 347.169C373.407 347.558 373.924 348.086 374.299 348.711C374.675 349.337 374.898 350.042 374.95 350.769C374.95 352.059 373.95 352.549 372.79 351.859L304 312.149C303.382 311.763 302.863 311.237 302.486 310.613C302.109 309.99 301.884 309.286 301.83 308.559C301.85 307.259 302.82 306.769 304 307.459Z" fill="#E0E0E0"/>
<path d="M304 321.529L372.79 361.239C373.407 361.628 373.924 362.156 374.299 362.782C374.675 363.407 374.898 364.112 374.95 364.839C374.95 366.139 373.95 366.629 372.79 365.939L304 326.219C303.382 325.833 302.863 325.307 302.486 324.684C302.109 324.06 301.884 323.356 301.83 322.629C301.85 321.329 302.82 320.839 304 321.529Z" fill="#E0E0E0"/>
<path d="M304 335.61L372.79 375.32C373.406 375.707 373.922 376.234 374.297 376.858C374.672 377.481 374.896 378.184 374.95 378.91C374.95 380.21 373.95 380.7 372.79 380.01L304 340.3C303.381 339.913 302.861 339.385 302.484 338.76C302.107 338.134 301.883 337.428 301.83 336.7C301.85 335.41 302.82 334.92 304 335.61Z" fill="#E0E0E0"/>
<path d="M366.85 409.399L347 301.629C346.627 300.106 345.691 298.78 344.38 297.919L222.79 227.719C221.6 227.029 220.79 227.579 221.08 228.929L240.48 334.239C240.852 335.763 241.788 337.088 243.1 337.949L366.85 409.399Z" fill="#33B2F8"/>
<path d="M216.55 278.22V348.22C216.591 348.972 216.809 349.704 217.186 350.355C217.563 351.007 218.089 351.56 218.72 351.97L267.19 379.97C267.817 380.364 268.539 380.578 269.279 380.592C270.019 380.605 270.749 380.417 271.389 380.046C272.03 379.676 272.558 379.138 272.916 378.491C273.274 377.843 273.448 377.11 273.42 376.37V306.36C273.379 305.61 273.162 304.879 272.787 304.228C272.412 303.577 271.889 303.023 271.26 302.61L222.78 274.61C222.154 274.218 221.433 274.003 220.694 273.989C219.955 273.975 219.226 274.163 218.586 274.532C217.945 274.901 217.418 275.437 217.059 276.084C216.7 276.73 216.525 277.462 216.55 278.2V278.22Z" fill="#455A64"/>
<path d="M273.42 341.391V306.391C273.395 305.639 273.178 304.906 272.79 304.261L266.69 307.781V379.781L267.19 380.071C267.836 380.412 268.552 380.596 269.282 380.608C270.012 380.62 270.734 380.46 271.39 380.141C271.988 379.729 272.481 379.182 272.828 378.544C273.176 377.907 273.368 377.196 273.39 376.471L273.42 341.391Z" fill="#263238"/>
<path d="M218.721 277L267.191 305C267.822 305.41 268.348 305.964 268.725 306.615C269.102 307.267 269.32 307.998 269.361 308.75V378.8C269.361 380.18 268.361 380.74 267.191 380.05L218.721 352.05C218.089 351.64 217.564 351.087 217.187 350.435C216.809 349.784 216.592 349.052 216.551 348.3V278.3C216.551 276.84 217.521 276.28 218.721 277Z" fill="#37474F"/>
<path d="M222.78 284L263.13 307.29C263.761 307.701 264.286 308.255 264.663 308.906C265.039 309.558 265.258 310.289 265.3 311.04V362.33C265.3 363.71 264.3 364.27 263.13 363.58L222.78 340.28C222.149 339.87 221.623 339.317 221.246 338.665C220.869 338.013 220.651 337.282 220.61 336.53V285.26C220.61 283.88 221.58 283.32 222.78 284Z" fill="white"/>
<path d="M230.38 296C231.776 296.911 232.937 298.138 233.769 299.582C234.601 301.026 235.081 302.646 235.17 304.31C235.17 307.37 233.03 308.61 230.38 307.08C228.983 306.169 227.821 304.942 226.987 303.499C226.153 302.055 225.671 300.435 225.58 298.77C225.58 295.69 227.73 294.45 230.38 296Z" fill="#33B2F8"/>
<path d="M250.871 314.21L240.871 328.91L233.321 317.53C233.096 317.11 232.766 316.755 232.364 316.501C231.961 316.246 231.499 316.101 231.023 316.079C230.547 316.057 230.074 316.159 229.649 316.374C229.224 316.59 228.863 316.913 228.601 317.31L220.601 327.31V336.53C220.641 337.282 220.859 338.013 221.236 338.665C221.613 339.317 222.139 339.87 222.771 340.28L263.121 363.58C264.321 364.27 265.291 363.71 265.291 362.33V336.7L254.811 314.52C253.881 312.52 252.111 312.38 250.871 314.21Z" fill="#33B2F8"/>
<path opacity="0.2" d="M250.871 314.21L240.871 328.91L233.321 317.53C233.096 317.11 232.766 316.755 232.364 316.501C231.961 316.246 231.499 316.101 231.023 316.079C230.547 316.057 230.074 316.159 229.649 316.374C229.224 316.59 228.863 316.913 228.601 317.31L220.601 327.31V336.53C220.641 337.282 220.859 338.013 221.236 338.665C221.613 339.317 222.139 339.87 222.771 340.28L263.121 363.58C264.321 364.27 265.291 363.71 265.291 362.33V336.7L254.811 314.52C253.881 312.52 252.111 312.38 250.871 314.21Z" fill="black"/>
<path d="M63.9198 265.34C79.5068 255.944 92.4006 242.678 101.35 226.83C110.3 210.983 115.002 193.091 115 174.89V139.37C115 138.27 115.78 137.82 116.73 138.37L206.73 190.31C207.232 190.641 207.651 191.084 207.951 191.605C208.252 192.126 208.426 192.71 208.46 193.31V228.83C208.449 246.95 203.777 264.762 194.893 280.553C186.008 296.345 173.211 309.585 157.73 319C157.09 319.381 156.359 319.582 155.615 319.582C154.87 319.582 154.14 319.381 153.5 319L63.9298 267.36C63.72 267.288 63.5378 267.153 63.4085 266.972C63.2792 266.792 63.2091 266.576 63.208 266.354C63.2069 266.132 63.2748 265.915 63.4024 265.734C63.5299 265.552 63.7107 265.415 63.9198 265.34Z" fill="white"/>
<path d="M155.61 320.14C154.78 320.141 153.965 319.92 153.25 319.5L63.6797 267.79C63.3954 267.672 63.1526 267.472 62.9817 267.216C62.8109 266.959 62.7197 266.658 62.7197 266.35C62.7197 266.042 62.8109 265.741 62.9817 265.485C63.1526 265.229 63.3954 265.029 63.6797 264.91C79.1537 255.52 91.9557 242.312 100.858 226.552C109.761 210.793 114.465 193.01 114.52 174.91V139.37C114.498 139.068 114.556 138.765 114.69 138.492C114.823 138.22 115.027 137.988 115.28 137.82C115.551 137.683 115.853 137.622 116.156 137.643C116.459 137.664 116.751 137.767 117 137.94L207 189.88C207.583 190.25 208.069 190.755 208.417 191.352C208.765 191.949 208.965 192.62 209 193.31V228.83C208.935 247.034 204.215 264.918 195.288 280.783C186.362 296.648 173.525 309.966 158 319.47C157.281 319.913 156.453 320.145 155.61 320.14ZM64.1797 265.77C63.8797 265.95 63.7097 266.16 63.7097 266.36C63.7097 266.56 63.8797 266.75 64.1797 266.92L153.75 318.64C154.314 318.972 154.956 319.146 155.61 319.146C156.264 319.146 156.906 318.972 157.47 318.64C172.838 309.217 185.542 296.021 194.374 280.306C203.206 264.59 207.872 246.877 207.93 228.85V193.31C207.897 192.797 207.746 192.298 207.49 191.853C207.233 191.407 206.877 191.026 206.45 190.74L116.45 138.8C116.349 138.723 116.23 138.672 116.105 138.651C115.979 138.63 115.85 138.64 115.73 138.68C115.632 138.764 115.557 138.872 115.512 138.992C115.466 139.113 115.452 139.243 115.47 139.37V174.89C115.414 193.165 110.666 211.12 101.68 227.033C92.6936 242.947 79.7707 256.285 64.1497 265.77H64.1797Z" fill="#E0E0E0"/>
<path d="M170 183.18L194.11 197.1C194.725 197.488 195.242 198.014 195.617 198.638C195.992 199.262 196.216 199.964 196.27 200.69C196.27 201.99 195.27 202.48 194.11 201.79L170 187.87C169.382 187.481 168.865 186.953 168.49 186.328C168.115 185.702 167.892 184.997 167.84 184.27C167.81 183 168.78 182.49 170 183.18Z" fill="#E0E0E0"/>
<path d="M155.619 196C155.619 197.29 154.619 197.78 153.449 197.09L129.349 183.18C128.734 182.793 128.217 182.266 127.842 181.642C127.467 181.019 127.243 180.316 127.189 179.59C127.189 178.29 128.189 177.8 129.349 178.49L153.449 192.4C154.069 192.787 154.588 193.315 154.965 193.94C155.343 194.566 155.567 195.272 155.619 196Z" fill="#E0E0E0"/>
<path d="M195.059 237.521C194.879 238.711 193.739 239.111 192.539 238.421L127.829 201.06C127.241 200.715 126.76 200.214 126.439 199.612C126.118 199.01 125.969 198.331 126.009 197.65C126.189 196.46 127.279 196.051 128.469 196.741L193.199 234.111C193.793 234.453 194.28 234.953 194.608 235.554C194.936 236.156 195.093 236.836 195.059 237.521Z" fill="#E0E0E0"/>
<path d="M192.39 250.061C192.07 251.171 190.83 251.511 189.63 250.821L124.92 213.451C124.351 213.138 123.893 212.656 123.61 212.072C123.327 211.488 123.233 210.831 123.34 210.191C123.65 209.071 124.85 208.721 126.04 209.411L190.76 246.781C191.337 247.093 191.803 247.575 192.094 248.162C192.386 248.749 192.489 249.412 192.39 250.061Z" fill="#E0E0E0"/>
<path d="M188.36 261.8C187.93 262.85 186.6 263.13 185.36 262.44L120.64 225.08C120.084 224.796 119.645 224.327 119.396 223.754C119.148 223.181 119.107 222.54 119.28 221.94C119.408 221.685 119.591 221.461 119.815 221.285C120.04 221.109 120.301 220.985 120.579 220.922C120.857 220.859 121.146 220.858 121.425 220.92C121.703 220.982 121.965 221.105 122.19 221.28L187 258.65C187.553 258.94 187.989 259.411 188.237 259.985C188.484 260.558 188.528 261.199 188.36 261.8Z" fill="#E0E0E0"/>
<path d="M183.08 272.83C182.726 273.316 182.194 273.643 181.6 273.738C181.006 273.834 180.399 273.691 179.91 273.34L115.2 236C114.66 235.743 114.238 235.289 114.023 234.731C113.807 234.173 113.813 233.554 114.04 233C114.208 232.758 114.422 232.552 114.67 232.393C114.919 232.234 115.196 232.127 115.487 232.076C115.777 232.026 116.075 232.034 116.362 232.1C116.649 232.166 116.92 232.289 117.16 232.461L181.88 269.821C182.425 270.076 182.852 270.529 183.075 271.088C183.297 271.647 183.299 272.27 183.08 272.83Z" fill="#E0E0E0"/>
<path d="M145.71 270C145.268 270.447 144.684 270.727 144.059 270.793C143.434 270.859 142.805 270.706 142.28 270.36L106 249.43C105.741 249.314 105.511 249.144 105.323 248.932C105.135 248.72 104.995 248.471 104.911 248.2C104.827 247.93 104.801 247.645 104.835 247.364C104.869 247.083 104.963 246.812 105.11 246.57C105.542 246.119 106.118 245.833 106.739 245.762C107.36 245.69 107.986 245.838 108.51 246.18L144.8 267.18C146 267.83 146.41 269.13 145.71 270Z" fill="#E0E0E0"/>
<path d="M132.46 289.41C132.46 289.41 113.46 301.95 90.6299 302.82C95.2799 305.51 105.77 306.62 113.87 305.51C113.87 305.51 112.74 310.22 104.57 316.24C104.57 316.24 117.87 319.83 141.76 294.77L132.46 289.41Z" fill="#33B2F8"/>
<path d="M152.56 294.12C148.49 298.26 140.28 298.61 134.67 295.37C129.06 292.13 128.18 286.54 132.25 282.37C136.32 278.2 143.78 277.15 149.39 280.37C155 283.59 156.63 290 152.56 294.12Z" fill="#33B2F8"/>
<path opacity="0.2" d="M152.56 294.12C148.49 298.26 140.28 298.61 134.67 295.37C129.06 292.13 128.18 286.54 132.25 282.37C136.32 278.2 143.78 277.15 149.39 280.37C155 283.59 156.63 290 152.56 294.12Z" fill="black"/>
<path d="M152.56 292.87C148.49 297.01 140.28 297.35 134.67 294.12C129.06 290.89 128.18 285.28 132.25 281.12C136.32 276.96 143.78 275.89 149.39 279.12C155 282.35 156.63 288.73 152.56 292.87Z" fill="#33B2F8"/>
<path d="M143.129 293.29C140.682 293.316 138.27 292.706 136.129 291.52C134.129 290.37 132.929 288.87 132.719 287.28C132.669 286.535 132.788 285.787 133.069 285.094C133.349 284.401 133.784 283.781 134.339 283.28C136.436 281.301 139.226 280.223 142.109 280.28C144.121 280.263 146.101 280.777 147.849 281.77C148.841 282.276 149.706 282.999 150.38 283.886C151.053 284.772 151.518 285.799 151.739 286.89C151.838 287.6 151.766 288.323 151.53 289C151.293 289.676 150.899 290.287 150.379 290.78C148.38 292.526 145.78 293.426 143.129 293.29Z" fill="#33B2F8"/>
<path opacity="0.3" d="M143.129 293.29C140.682 293.316 138.27 292.706 136.129 291.52C134.129 290.37 132.929 288.87 132.719 287.28C132.669 286.535 132.788 285.787 133.069 285.094C133.349 284.401 133.784 283.781 134.339 283.28C136.436 281.301 139.226 280.223 142.109 280.28C144.121 280.263 146.101 280.777 147.849 281.77C148.841 282.276 149.706 282.999 150.38 283.886C151.053 284.772 151.518 285.799 151.739 286.89C151.838 287.6 151.766 288.323 151.53 289C151.293 289.676 150.899 290.287 150.379 290.78C148.38 292.526 145.78 293.426 143.129 293.29Z" fill="black"/>
<path d="M147.889 283C146.139 282.011 144.16 281.497 142.149 281.51C139.266 281.453 136.476 282.53 134.379 284.51C133.571 285.289 133.014 286.292 132.779 287.39C133.007 288.285 133.428 289.119 134.014 289.833C134.6 290.547 135.336 291.123 136.169 291.52C138.31 292.706 140.722 293.316 143.169 293.29C145.835 293.433 148.451 292.529 150.459 290.77C151.193 290.057 151.671 289.122 151.819 288.11C151.589 287.018 151.116 285.992 150.436 285.108C149.755 284.223 148.885 283.503 147.889 283Z" fill="#33B2F8"/>
<path opacity="0.2" d="M147.889 283C146.139 282.011 144.16 281.497 142.149 281.51C139.266 281.453 136.476 282.53 134.379 284.51C133.571 285.289 133.014 286.292 132.779 287.39C133.007 288.285 133.428 289.119 134.014 289.833C134.6 290.547 135.336 291.123 136.169 291.52C138.31 292.706 140.722 293.316 143.169 293.29C145.835 293.433 148.451 292.529 150.459 290.77C151.193 290.057 151.671 289.122 151.819 288.11C151.589 287.018 151.116 285.992 150.436 285.108C149.755 284.223 148.885 283.503 147.889 283Z" fill="black"/>
<path d="M189.926 262.186C190.951 258.155 188.514 254.058 184.483 253.033C180.453 252.009 176.355 254.446 175.33 258.476C174.306 262.507 176.743 266.605 180.774 267.629C184.804 268.654 188.902 266.217 189.926 262.186Z" fill="#263238"/>
<path d="M200.67 387.73H195.37V396.81H200.67V387.73Z" fill="#FFA8A7"/>
<path d="M182.29 387.251L176.99 387.431L176.72 377.821L182.29 377.641V387.251Z" fill="#FFA8A7"/>
<path d="M200.32 309.941C200.32 315.001 200.98 351.521 200.98 351.521C201.1 352.981 202.47 355.671 202.17 361.261C201.77 368.861 200.9 392.261 200.9 392.261C199.982 392.709 198.978 392.951 197.957 392.97C196.936 392.989 195.923 392.785 194.99 392.371C194.99 392.371 190.32 361.281 189.36 353.751C188.54 347.171 187.13 329.311 187.13 329.311L184.26 350.781C184.869 353.543 185.087 356.377 184.91 359.201C184.66 362.691 182.62 384.261 182.62 384.261C181.696 384.782 180.669 385.094 179.612 385.175C178.555 385.257 177.492 385.105 176.5 384.731C176.5 384.731 173.82 353.971 173.76 350.781C173.69 347.131 175.52 309.931 175.52 309.931L200.32 309.941Z" fill="#37474F"/>
<path d="M198.06 281.17C198.06 281.17 200.06 282.37 200.06 287.17V297.56L200.21 317.17C196.267 319.34 191.785 320.334 187.294 320.037C182.804 319.739 178.492 318.161 174.87 315.49C174.87 315.49 175.26 290.28 175.26 286.15C175.26 282.02 177.56 276.65 183.9 276.28L192.08 278.18L198.06 281.17Z" fill="white"/>
<path d="M175.27 302.85C177.73 292.52 178.54 282.19 178.96 279.53L172.15 290.41C172.15 290.41 170.64 298.86 169.87 303.34C168.86 308.152 167.441 312.869 165.63 317.44C165.136 318.112 164.479 318.646 163.72 318.99C162.534 319.635 161.452 320.454 160.51 321.42C159.63 322.16 158.93 322.29 159 322.56C159.117 322.869 159.348 323.122 159.645 323.267C159.943 323.412 160.284 323.438 160.6 323.34C161.296 323.15 161.968 322.878 162.6 322.53C161.993 323.692 161.203 324.749 160.26 325.66C158.12 327.75 157.87 329.16 161.67 329.66C164.05 329.95 166.12 328.66 168.51 323.66C169.429 321.819 170.215 319.914 170.86 317.96C172.39 312.83 174.53 306 175.27 302.85Z" fill="#FFA8A7"/>
<path d="M180.73 276.301C178.44 275.931 176.86 276.131 175.29 277.821C174.29 278.881 173.29 280.641 171.57 291.221C170.08 300.421 165.83 315.611 165.83 315.611C166.544 316.415 167.448 317.027 168.459 317.392C169.471 317.757 170.557 317.863 171.62 317.701L179.1 290.191L180.73 276.301Z" fill="#37474F"/>
<path d="M184.16 276.741C182.407 278.212 181.139 280.178 180.52 282.381C179.74 285.751 179.61 323.321 179.61 323.321C179.61 323.321 175.61 322.581 173.76 321.121V286.781C173.76 281.861 174.86 274.381 184.16 276.741Z" fill="#37474F"/>
<path d="M192.34 278.641C192.34 278.641 187.9 283.251 187.8 294.501C187.7 305.751 187.52 325.501 187.52 325.501C187.52 325.501 195.34 327.091 200.92 323.761C200.92 323.761 200.29 295.581 200.18 291.351C200.06 286.511 201.47 282.401 198.75 281.041C196.683 280.064 194.539 279.261 192.34 278.641Z" fill="#37474F"/>
<path d="M195.66 265.721C195.209 267.973 194.638 270.199 193.95 272.391C193.623 272.971 193.086 273.404 192.45 273.601L192.53 269.601L195.66 265.721Z" fill="#263238"/>
<path d="M194.129 257.51C194.555 257.459 194.986 257.506 195.39 257.648C195.794 257.791 196.16 258.024 196.459 258.33C197.459 259.33 196.909 262.57 195.659 265.72L193.359 265.98L194.129 257.51Z" fill="#263238"/>
<path d="M192.67 266C193.13 266.28 193.79 265.39 194.36 264.8C194.583 264.547 194.867 264.355 195.185 264.241C195.503 264.127 195.845 264.095 196.179 264.149C196.512 264.203 196.827 264.341 197.093 264.549C197.359 264.757 197.567 265.03 197.7 265.34C198.7 267.34 196.89 269.95 195.43 270.41C192.91 271.2 192.53 269.59 192.53 269.59L192.34 278.66L183.62 284.41C183.313 282.397 183.495 280.339 184.15 278.41V275.65C183.029 275.832 181.893 275.892 180.76 275.83C178.91 275.54 177.76 274.08 177.18 272.08C176.28 268.86 175.94 266.26 176.7 259.93C177.54 253 185.61 252.93 189.96 255.67C194.31 258.41 192.67 266 192.67 266Z" fill="#FFA8A7"/>
<path d="M183.62 284.391L192.37 277.271V276.131C192.37 276.131 194.37 276.531 194.67 279.371L189.36 287.461L187.11 283.251L183.62 284.391Z" fill="#F0F0F0"/>
<path d="M184.16 275.641C183.621 275.718 183.103 275.902 182.636 276.182C182.169 276.462 181.762 276.832 181.44 277.271C180.61 278.651 179.1 284.391 179.1 284.391L181.92 282.211L183.62 284.391C183.458 282.375 183.637 280.347 184.15 278.391L184.16 275.641Z" fill="#F0F0F0"/>
<path d="M192.669 266.76C192.899 266.76 193.779 265.3 194.359 264.76C195.149 264.03 194.129 257.49 194.129 257.49C194.337 256.924 194.375 256.309 194.238 255.721C194.102 255.133 193.796 254.597 193.359 254.18C192.269 252.98 190.449 252.84 187.359 252.36C185.729 252.1 183.259 251.64 181.639 251.36C179.639 251 178.089 250.62 176.709 251.81C176.175 252.279 175.797 252.901 175.627 253.591C175.457 254.281 175.503 255.007 175.759 255.67C175.9 255.97 176.086 256.247 176.309 256.49C176.677 256.944 177.161 257.29 177.709 257.49C177.709 257.49 178.559 258.24 181.509 258.6C184.228 258.807 186.961 258.753 189.669 258.44C190.529 258.33 190.669 259.15 191.169 261.44C191.559 263.37 191.889 266.74 192.669 266.76Z" fill="#263238"/>
<path d="M194.119 258L196.909 256.5C196.82 256.313 196.694 256.145 196.538 256.008C196.383 255.87 196.201 255.766 196.004 255.7C195.807 255.635 195.598 255.61 195.391 255.627C195.184 255.645 194.983 255.703 194.799 255.8C194.427 256.012 194.15 256.357 194.023 256.766C193.897 257.174 193.931 257.616 194.119 258Z" fill="#263238"/>
<path d="M184.16 275.64C186.065 275.279 187.933 274.743 189.74 274.04C190.595 273.593 191.293 272.895 191.74 272.04C191.522 272.884 191.138 273.676 190.61 274.37C189.55 275.72 184.17 276.71 184.17 276.71L184.16 275.64Z" fill="#F28F8F"/>
<path d="M185.149 265.001C185.149 265.221 185.237 265.432 185.393 265.588C185.548 265.743 185.759 265.831 185.979 265.831C186.2 265.831 186.411 265.743 186.566 265.588C186.722 265.432 186.809 265.221 186.809 265.001C186.809 264.781 186.722 264.57 186.566 264.414C186.411 264.258 186.2 264.171 185.979 264.171C185.759 264.171 185.548 264.258 185.393 264.414C185.237 264.57 185.149 264.781 185.149 265.001Z" fill="#263238"/>
<path d="M186 261.82L187.77 262.82C187.897 262.578 187.925 262.295 187.849 262.033C187.772 261.77 187.597 261.547 187.36 261.41C187.244 261.347 187.117 261.308 186.985 261.294C186.854 261.281 186.721 261.294 186.595 261.332C186.468 261.37 186.35 261.433 186.248 261.516C186.146 261.6 186.062 261.703 186 261.82Z" fill="#263238"/>
<path d="M184.529 270.671L182.649 271.381C182.692 271.506 182.759 271.622 182.847 271.721C182.935 271.82 183.041 271.9 183.16 271.958C183.279 272.016 183.408 272.049 183.54 272.057C183.672 272.064 183.805 272.045 183.929 272.001C184.059 271.957 184.178 271.886 184.279 271.794C184.38 271.702 184.461 271.591 184.518 271.466C184.574 271.341 184.604 271.206 184.606 271.07C184.608 270.933 184.582 270.797 184.529 270.671Z" fill="#F28F8F"/>
<path d="M177.77 262.51L179.39 261.27C179.313 261.162 179.215 261.071 179.102 261.001C178.989 260.931 178.863 260.885 178.731 260.864C178.6 260.844 178.466 260.85 178.337 260.882C178.208 260.914 178.087 260.971 177.98 261.05C177.767 261.222 177.626 261.468 177.587 261.739C177.548 262.01 177.614 262.286 177.77 262.51Z" fill="#263238"/>
<path d="M178.27 264.711C178.276 264.873 178.329 265.031 178.424 265.163C178.519 265.296 178.65 265.397 178.802 265.456C178.954 265.514 179.12 265.526 179.279 265.491C179.438 265.455 179.583 265.374 179.696 265.257C179.81 265.14 179.886 264.992 179.915 264.832C179.945 264.672 179.927 264.506 179.863 264.356C179.8 264.206 179.693 264.079 179.558 263.989C179.422 263.899 179.263 263.851 179.1 263.851C178.989 263.852 178.879 263.875 178.777 263.919C178.675 263.963 178.582 264.027 178.505 264.107C178.428 264.187 178.367 264.282 178.327 264.385C178.287 264.489 178.267 264.599 178.27 264.711Z" fill="#263238"/>
<path d="M182.49 263.931L182.21 268.911L179.62 268.021L182.49 263.931Z" fill="#F28F8F"/>
<path d="M195.369 394.191V393.431C194.859 393.651 193.679 398.151 191.579 400.071C189.909 401.591 187.579 403.361 187.039 405.071C186.499 406.781 190.219 407.811 191.779 407.531C193.599 407.211 196.779 405.931 197.539 404.751C198.299 403.571 198.699 401.821 199.339 400.951C199.979 400.081 201.459 399.111 201.809 398.101C201.913 397.162 201.807 396.213 201.499 395.321C201.259 394.381 200.989 393.321 200.669 393.441V394.001C199.916 394.596 198.98 394.914 198.019 394.901C197.239 394.931 195.359 394.781 195.369 394.191Z" fill="#263238"/>
<path d="M176.93 385.79C176.66 385.79 176.43 386.19 175.83 386.85C174.919 387.762 173.865 388.519 172.71 389.09C170.71 390.09 166.86 391.61 165.11 392.4C164.02 392.89 164.11 394.21 165.2 394.96C166.29 395.71 169.05 396.25 172.32 395.52C174.11 395.12 176.42 393.52 177.89 393.57C179.36 393.62 182.11 393.63 183.19 392.89C184.27 392.15 183.84 390.54 183.53 389.17C183.22 387.8 182.78 385.35 182.29 385.45V386C181.65 387 178.36 387.36 176.96 386.65L176.93 385.79Z" fill="#263238"/>
<path d="M187.13 329.321C184.389 328.47 181.87 327.025 179.75 325.091C179.75 325.091 181.17 327.761 185.41 330.241L184.5 349.001L187.13 329.321Z" fill="#263238"/>
<path d="M186.18 283.56C185.88 282.84 184.84 282.51 183.86 282.49C183.658 282.488 183.459 282.526 183.273 282.603C183.087 282.679 182.919 282.793 182.778 282.938C182.638 283.082 182.528 283.253 182.456 283.441C182.384 283.629 182.351 283.829 182.36 284.03C182.376 284.852 182.55 285.663 182.87 286.42C183.609 286.255 184.382 286.325 185.08 286.62C185.681 285.701 186.058 284.653 186.18 283.56Z" fill="#263238"/>
<path d="M182.87 286.421C182.87 286.421 181.03 301.551 181.07 302.421C181.11 303.291 183 308.551 183.97 308.551C184.94 308.551 186.81 303.841 186.86 303.101C186.91 302.361 185.08 286.601 185.08 286.601C184.778 286.342 184.401 286.185 184.004 286.153C183.607 286.12 183.21 286.214 182.87 286.421Z" fill="#263238"/>
<path d="M195.22 368.271L191.33 366.001C191.125 365.867 190.954 365.687 190.832 365.475C190.711 365.263 190.641 365.025 190.63 364.781V342.741C190.642 342.495 190.712 342.256 190.833 342.042C190.955 341.829 191.125 341.646 191.33 341.511L217.72 326.281C217.939 326.167 218.183 326.108 218.43 326.108C218.677 326.108 218.92 326.167 219.14 326.281L223.02 328.521C223.226 328.653 223.398 328.833 223.522 329.045C223.645 329.257 223.717 329.496 223.73 329.741V351.811C223.708 352.052 223.631 352.285 223.504 352.491C223.378 352.698 223.205 352.872 223 353.001L196.61 368.241C196.396 368.351 196.159 368.41 195.918 368.416C195.678 368.421 195.439 368.371 195.22 368.271Z" fill="#33B2F8"/>
<path d="M190.63 342.74C190.639 342.494 190.707 342.254 190.83 342.04L196.59 345.36V368.29C196.376 368.391 196.142 368.444 195.905 368.444C195.668 368.444 195.434 368.391 195.22 368.29L191.33 366C191.125 365.867 190.954 365.687 190.832 365.475C190.711 365.262 190.641 365.024 190.63 364.78V342.74Z" fill="#F28F8F"/>
<path d="M190.63 342.74C190.639 342.494 190.707 342.254 190.83 342.04L196.59 345.36V368.29C196.376 368.391 196.142 368.444 195.905 368.444C195.668 368.444 195.434 368.391 195.22 368.29L191.33 366C191.125 365.867 190.954 365.687 190.832 365.475C190.711 365.262 190.641 365.024 190.63 364.78V342.74Z" fill="#33B2F8"/>
<path opacity="0.2" d="M190.63 342.74C190.639 342.494 190.707 342.254 190.83 342.04L196.59 345.36V368.29C196.376 368.391 196.142 368.444 195.905 368.444C195.668 368.444 195.434 368.391 195.22 368.29L191.33 366C191.125 365.867 190.954 365.687 190.832 365.475C190.711 365.262 190.641 365.024 190.63 364.78V342.74Z" fill="black"/>
<path d="M196.629 344.57L222.999 329.33C223.389 329.11 223.709 329.33 223.709 329.74V351.81C223.69 352.05 223.616 352.281 223.493 352.488C223.37 352.694 223.201 352.869 222.999 353L196.609 368.24C196.219 368.46 195.899 368.24 195.899 367.83V345.79C195.917 345.544 195.992 345.305 196.118 345.093C196.245 344.881 196.42 344.702 196.629 344.57Z" fill="#33B2F8"/>
<path d="M194.31 343.231C194.105 343.367 193.935 343.549 193.814 343.763C193.692 343.976 193.622 344.215 193.61 344.461V367.341L193 367.001V344.071C193.013 343.827 193.083 343.589 193.205 343.378C193.326 343.166 193.496 342.985 193.7 342.851L220.8 327.211L221.46 327.591L194.31 343.231Z" fill="#33B2F8"/>
<path opacity="0.3" d="M194.31 343.231C194.105 343.367 193.935 343.549 193.814 343.763C193.692 343.976 193.622 344.215 193.61 344.461V367.341L193 367.001V344.071C193.013 343.827 193.083 343.589 193.205 343.378C193.326 343.166 193.496 342.985 193.7 342.851L220.8 327.211L221.46 327.591L194.31 343.231Z" fill="black"/>
<path d="M193.65 342.85L220.65 327.23L221.34 327.6L194.26 343.23C194.054 343.366 193.883 343.548 193.76 343.76L193.1 343.38C193.234 343.16 193.424 342.977 193.65 342.85Z" fill="#33B2F8"/>
<path opacity="0.2" d="M193.65 342.85L220.65 327.23L221.34 327.6L194.26 343.23C194.054 343.366 193.883 343.548 193.76 343.76L193.1 343.38C193.234 343.16 193.424 342.977 193.65 342.85Z" fill="black"/>
<path d="M197.75 339.34L198.22 339.07C198.329 339.016 198.449 338.987 198.57 338.987C198.692 338.987 198.812 339.016 198.92 339.07L200.71 340.07L201.01 339.98V340.36C201.007 340.404 200.992 340.447 200.967 340.483C200.943 340.52 200.909 340.55 200.87 340.57L200.25 340.92C200.141 340.979 200.019 341.01 199.895 341.01C199.771 341.01 199.649 340.979 199.54 340.92L197.6 339.8C197.559 339.784 197.524 339.757 197.497 339.721C197.471 339.686 197.454 339.644 197.45 339.6V339.22L197.75 339.34Z" fill="#33B2F8"/>
<path opacity="0.2" d="M197.75 339.34L198.22 339.07C198.329 339.016 198.449 338.987 198.57 338.987C198.692 338.987 198.812 339.016 198.92 339.07L200.71 340.07L201.01 339.98V340.36C201.007 340.404 200.992 340.447 200.967 340.483C200.943 340.52 200.909 340.55 200.87 340.57L200.25 340.92C200.141 340.979 200.019 341.01 199.895 341.01C199.771 341.01 199.649 340.979 199.54 340.92L197.6 339.8C197.559 339.784 197.524 339.757 197.497 339.721C197.471 339.686 197.454 339.644 197.45 339.6V339.22L197.75 339.34Z" fill="black"/>
<path d="M197.6 339.001L198.22 338.651C198.328 338.592 198.448 338.562 198.57 338.562C198.693 338.562 198.813 338.592 198.92 338.651L200.92 339.771C200.963 339.784 201 339.811 201.026 339.847C201.052 339.883 201.066 339.926 201.066 339.971C201.066 340.015 201.052 340.059 201.026 340.095C201 340.131 200.963 340.157 200.92 340.171L200.3 340.531C200.19 340.585 200.068 340.613 199.945 340.613C199.822 340.613 199.701 340.585 199.59 340.531L197.65 339.411C197.606 339.401 197.567 339.377 197.537 339.344C197.507 339.31 197.488 339.268 197.482 339.223C197.477 339.179 197.485 339.133 197.506 339.094C197.527 339.054 197.56 339.021 197.6 339.001Z" fill="#33B2F8"/>
<path d="M212.75 331.34L213.22 331.07C213.329 331.016 213.449 330.987 213.57 330.987C213.692 330.987 213.812 331.016 213.92 331.07L215.71 332.07L216.01 331.98V332.36C216.007 332.404 215.992 332.447 215.967 332.483C215.943 332.52 215.909 332.55 215.87 332.57L215.25 332.92C215.141 332.979 215.019 333.01 214.895 333.01C214.771 333.01 214.649 332.979 214.54 332.92L212.6 331.8C212.559 331.784 212.524 331.757 212.497 331.721C212.471 331.686 212.454 331.644 212.45 331.6V331.22L212.75 331.34Z" fill="#33B2F8"/>
<path opacity="0.2" d="M212.75 331.34L213.22 331.07C213.329 331.016 213.449 330.987 213.57 330.987C213.692 330.987 213.812 331.016 213.92 331.07L215.71 332.07L216.01 331.98V332.36C216.007 332.404 215.992 332.447 215.967 332.483C215.943 332.52 215.909 332.55 215.87 332.57L215.25 332.92C215.141 332.979 215.019 333.01 214.895 333.01C214.771 333.01 214.649 332.979 214.54 332.92L212.6 331.8C212.559 331.784 212.524 331.757 212.497 331.721C212.471 331.686 212.454 331.644 212.45 331.6V331.22L212.75 331.34Z" fill="black"/>
<path d="M212.6 331.001L213.22 330.651C213.328 330.592 213.448 330.562 213.57 330.562C213.693 330.562 213.813 330.592 213.92 330.651L215.92 331.771C215.963 331.784 216 331.811 216.026 331.847C216.052 331.883 216.066 331.926 216.066 331.971C216.066 332.015 216.052 332.059 216.026 332.095C216 332.131 215.963 332.157 215.92 332.171L215.3 332.531C215.19 332.585 215.068 332.613 214.945 332.613C214.822 332.613 214.701 332.585 214.59 332.531L212.65 331.411C212.606 331.401 212.567 331.377 212.537 331.344C212.507 331.31 212.488 331.268 212.482 331.223C212.477 331.179 212.485 331.133 212.506 331.094C212.527 331.054 212.56 331.021 212.6 331.001Z" fill="#33B2F8"/>
<path d="M208.5 330.071V332.371L209.82 333.131V329.641C209.82 329.451 209.7 329.381 209.54 329.471L208.5 330.071Z" fill="#33B2F8"/>
<path opacity="0.3" d="M208.5 330.071V332.371L209.82 333.131V329.641C209.82 329.451 209.7 329.381 209.54 329.471L208.5 330.071Z" fill="black"/>
<path d="M201.56 332.51V336.77L202.56 337.34L203.22 336.95V333.46C203.225 333.362 203.255 333.265 203.305 333.18C203.355 333.095 203.426 333.023 203.51 332.97L208.51 330.07L209.51 329.47C209.67 329.38 209.79 329.47 209.79 329.64V333.13L210.46 332.75V328.49C210.464 328.471 210.464 328.45 210.46 328.43C210.445 328.343 210.413 328.26 210.365 328.186C210.316 328.112 210.253 328.049 210.18 328L209.76 327.76C209.673 327.716 209.577 327.692 209.48 327.692C209.382 327.692 209.286 327.716 209.2 327.76L201.84 332C201.756 332.057 201.687 332.133 201.638 332.222C201.59 332.31 201.563 332.409 201.56 332.51Z" fill="#33B2F8"/>
<path d="M202.54 333.071V337.341L203.2 336.951V333.461C203.206 333.362 203.235 333.266 203.285 333.181C203.336 333.095 203.406 333.023 203.49 332.971L208.49 330.071L209.49 329.471C209.65 329.381 209.77 329.471 209.77 329.641V333.131L210.44 332.751V328.491C210.445 328.471 210.445 328.451 210.44 328.431C210.44 328.291 210.3 328.251 210.16 328.331L202.78 332.591C202.708 332.649 202.649 332.722 202.607 332.804C202.566 332.887 202.543 332.978 202.54 333.071Z" fill="#33B2F8"/>
<path opacity="0.2" d="M202.54 333.071V337.341L203.2 336.951V333.461C203.206 333.362 203.235 333.266 203.285 333.181C203.336 333.095 203.406 333.023 203.49 332.971L208.49 330.071L209.49 329.471C209.65 329.381 209.77 329.471 209.77 329.641V333.131L210.44 332.751V328.491C210.445 328.471 210.445 328.451 210.44 328.431C210.44 328.291 210.3 328.251 210.16 328.331L202.78 332.591C202.708 332.649 202.649 332.722 202.607 332.804C202.566 332.887 202.543 332.978 202.54 333.071Z" fill="black"/>
<path d="M208.249 322.501C208.249 322.501 208.249 323.821 208.249 324.391C208.621 326.122 208.878 327.876 209.019 329.641C209.159 330.261 208.299 331.491 206.879 332.161C206.269 332.451 205.209 333.431 204.729 333.481C204.289 333.385 203.869 333.212 203.489 332.971L204.089 332.621C204.089 332.621 204.919 331.411 204.009 330.771L202.209 331.771C202.107 331.229 202.107 330.672 202.209 330.131C202.379 329.231 202.399 328.071 202.539 327.131C202.741 326.384 203.08 325.682 203.539 325.061L203.239 322.061L208.249 322.501Z" fill="#FFA8A7"/>
<path d="M197.09 280.271C198.663 280.83 200.164 281.575 201.56 282.491C202.67 283.381 209.15 301.941 209.4 303.611C209.65 305.281 208.69 322.861 208.69 322.861C207.826 323.424 206.83 323.755 205.8 323.822C204.77 323.889 203.74 323.688 202.81 323.241L201.81 305.621L196.23 291.111C196.23 291.111 194.11 285.001 197.09 280.271Z" fill="#37474F"/>
</svg>
