<svg width="18" height="18" viewBox="0 0 18 18" fill="none" xmlns="http://www.w3.org/2000/svg">
<g clip-path="url(#clip0)">
<path d="M0.828612 11.9246L8.75069 17.2069C9.0208 17.373 9.30969 17.3752 9.58269 17.2069L17.5048 11.9246C17.7077 11.7895 17.8334 11.5476 17.8334 11.3056V6.02472C17.8334 5.78278 17.7077 5.54083 17.5048 5.40577L9.58269 0.124149C9.31258 -0.0419622 9.02369 -0.0434066 8.75069 0.124149L0.828612 5.40577C0.625667 5.54083 0.5 5.78278 0.5 6.02472V11.3056C0.5 11.5476 0.625667 11.7895 0.828612 11.9246ZM8.42208 15.1948L2.58939 11.3063L5.19157 9.56506L8.42208 11.7223V15.1948ZM9.9113 15.1948V11.7223L13.1418 9.56506L15.744 11.3063L9.9113 15.1948ZM16.3442 9.91245L14.4772 8.66517L16.3442 7.41717V9.91245ZM9.9113 2.13627L15.744 6.02472L13.1418 7.766L9.9113 5.60872V2.13627ZM9.16669 6.90439L11.7978 8.66517L9.16669 10.426L6.53563 8.66517L9.16669 6.90439ZM8.42208 2.13627V5.60872L5.19157 7.766L2.58939 6.02472L8.42208 2.13627ZM1.98995 7.41861V7.41789L3.8569 8.66589L1.98995 9.9139V7.41861Z" fill="#8B9BA3"/>
</g>
<defs>
<clipPath id="clip0">
<rect width="17.3334" height="17.3334" fill="white" transform="translate(0.5)"/>
</clipPath>
</defs>
</svg>
