<svg viewBox="0 0 18 18" fill="none" xmlns="http://www.w3.org/2000/svg">
<g clip-path="url(#clip0)">
<path d="M8.66669 0.361328C3.87834 0.361328 0 4.17467 0 8.8778C0 12.6413 2.48301 15.8328 5.92585 16.958C6.35918 17.0382 6.51807 16.7746 6.51807 16.5485C6.51807 16.3463 6.51085 15.8104 6.50724 15.1005C4.09646 15.614 3.58801 13.9579 3.58801 13.9579C3.19368 12.975 2.62384 12.7121 2.62384 12.7121C1.83878 12.1841 2.68451 12.195 2.68451 12.195C3.55479 12.2542 4.01196 13.0725 4.01196 13.0725C4.78474 14.3746 6.04068 13.9984 6.53613 13.781C6.61413 13.2299 6.8373 12.8551 7.08502 12.642C5.16029 12.429 3.13734 11.6966 3.13734 8.43363C3.13734 7.50413 3.47318 6.74435 4.02929 6.14851C3.93179 5.93329 3.63929 5.06734 4.10512 3.89445C4.10512 3.89445 4.83096 3.66623 6.48846 4.76762C7.1818 4.5784 7.91847 4.48451 8.65513 4.48017C9.3918 4.48451 10.1285 4.5784 10.8218 4.76762C12.4685 3.66623 13.1943 3.89445 13.1943 3.89445C13.6601 5.06734 13.3676 5.93329 13.281 6.14851C13.8335 6.74435 14.1693 7.50413 14.1693 8.43363C14.1693 11.7053 12.1435 12.4254 10.2151 12.6348C10.5185 12.8905 10.8001 13.4126 10.8001 14.2107C10.8001 15.3504 10.7893 16.2662 10.7893 16.5428C10.7893 16.7659 10.941 17.0324 11.3851 16.9472C14.8525 15.8292 17.3334 12.6355 17.3334 8.8778C17.3334 4.17467 13.4529 0.361328 8.66669 0.361328Z" fill="#8B9BA3"/>
</g>
<defs>
<clipPath id="clip0">
<rect width="17.3334" height="17.3334" fill="white"/>
</clipPath>
</defs>
</svg>
