<svg  viewBox="0 0 18 18" fill="none" xmlns="http://www.w3.org/2000/svg">
<g clip-path="url(#clip0)">
<path d="M8.83613 4.2168C6.3784 4.2168 4.38867 6.20869 4.38867 8.66425C4.38867 11.122 6.38057 13.1117 8.83613 13.1117C11.2939 13.1117 13.2836 11.1198 13.2836 8.66425C13.2836 6.20652 11.2917 4.2168 8.83613 4.2168ZM8.83613 11.551C7.24073 11.551 5.9494 10.2589 5.9494 8.66425C5.9494 7.06958 7.24146 5.77752 8.83613 5.77752C10.4308 5.77752 11.7229 7.06958 11.7229 8.66425C11.7236 10.2589 10.4315 11.551 8.83613 11.551Z" fill="#8B9BA3"/>
<path d="M12.4074 0.0554226C10.8127 -0.0189665 6.8629 -0.0153553 5.26678 0.0554226C3.86422 0.121145 2.62705 0.459868 1.62966 1.45726C-0.0372331 3.12415 0.175823 5.37027 0.175823 8.66434C0.175823 12.0357 -0.0119552 14.2298 1.62966 15.8714C3.30305 17.5441 5.58167 17.3253 8.83673 17.3253C12.1763 17.3253 13.329 17.3274 14.5098 16.8703C16.1153 16.247 17.3272 14.8119 17.4456 12.2343C17.5208 10.6389 17.5164 6.68978 17.4456 5.09366C17.3026 2.05093 15.6697 0.205645 12.4074 0.0554226ZM14.9316 14.7686C13.8389 15.8613 12.3229 15.7638 8.81579 15.7638C5.20467 15.7638 3.75661 15.8172 2.7 14.7577C1.48305 13.5466 1.70333 11.6016 1.70333 8.65278C1.70333 4.66249 1.29383 1.78876 5.29856 1.58365C6.21867 1.55115 6.48951 1.54032 8.80568 1.54032L8.83818 1.56198C12.6869 1.56198 15.7065 1.15898 15.8878 5.16299C15.929 6.07661 15.9384 6.35105 15.9384 8.66362C15.9376 12.2328 16.0055 13.6896 14.9316 14.7686Z" fill="#8B9BA3"/>
<path d="M13.4602 5.08051C14.0342 5.08051 14.4995 4.61521 14.4995 4.04123C14.4995 3.46725 14.0342 3.00195 13.4602 3.00195C12.8862 3.00195 12.4209 3.46725 12.4209 4.04123C12.4209 4.61521 12.8862 5.08051 13.4602 5.08051Z" fill="#8B9BA3"/>
</g>
<defs>
<clipPath id="clip0">
<rect width="17.3334" height="17.3334" fill="white" transform="translate(0.166992)"/>
</clipPath>
</defs>
</svg>
