<svg viewBox="0 0 19 18" fill="none" xmlns="http://www.w3.org/2000/svg">
<g clip-path="url(#clip0)">
<path d="M16.3864 5.13718C17.0913 4.63667 17.6842 4.01195 18.1674 3.29262V3.29189C17.5224 3.57428 16.8363 3.76206 16.1199 3.85306C16.8565 3.41323 17.4191 2.72206 17.6835 1.88933C16.9966 2.29883 16.2383 2.58772 15.4301 2.7495C14.778 2.05472 13.8485 1.625 12.8345 1.625C10.8671 1.625 9.28329 3.22184 9.28329 5.17906C9.28329 5.46073 9.30712 5.73157 9.36562 5.9894C6.41172 5.84496 3.79727 4.4294 2.04082 2.27211C1.7346 2.80439 1.55404 3.41323 1.55404 4.06828C1.55404 5.29895 2.18743 6.38951 3.13282 7.02146C2.56154 7.01062 2.00182 6.84451 1.52732 6.58379V6.62279C1.52732 8.34963 2.75871 9.78397 4.37433 10.1147C4.08472 10.1942 3.76983 10.2317 3.44266 10.2317C3.21516 10.2317 2.98549 10.2187 2.77027 10.1711C3.23032 11.578 4.53755 12.6129 6.09033 12.6469C4.88133 13.5923 3.34588 14.1621 1.68404 14.1621C1.39299 14.1621 1.11349 14.1491 0.833984 14.1137C2.40843 15.1284 4.27322 15.7084 6.28533 15.7084C12.5564 15.7084 16.6435 10.4766 16.3864 5.13718Z" fill="#8B9BA3"/>
</g>
<defs>
<clipPath id="clip0">
<rect width="17.3334" height="17.3334" fill="white" transform="translate(0.833984)"/>
</clipPath>
</defs>
</svg>
