<svg width="30" height="30" viewBox="0 0 30 30" fill="none" xmlns="http://www.w3.org/2000/svg">
<path fill-rule="evenodd" clip-rule="evenodd" d="M18.1783 3.05495L5.14312 4.03423C4.09318 4.12789 3.72656 4.82827 3.72656 5.66707V20.2252C3.72656 20.8798 3.95468 21.4387 4.50358 22.1859L7.56786 26.2446C8.07093 26.8981 8.5292 27.0386 9.48952 26.9918L24.6266 26.0552C25.9067 25.9615 26.2733 25.3548 26.2733 24.3287V7.95346C26.2733 7.42375 26.0696 7.26972 25.4586 6.81807L25.3568 6.74106L21.1967 3.75429C20.1906 3.00811 19.7791 2.91445 18.1783 3.05495ZM9.83679 7.68288C8.6015 7.76821 8.32043 7.78695 7.61877 7.2052L5.8295 5.76073C5.64823 5.57445 5.73886 5.34446 6.19611 5.2945L18.7272 4.35788C19.7791 4.26422 20.328 4.63887 20.7395 4.9646L22.8892 6.55165C22.9799 6.59848 23.209 6.87739 22.934 6.87739L9.9926 7.67455L9.83679 7.68288ZM8.39172 24.1923V10.2846C8.39172 9.67787 8.57401 9.39793 9.12291 9.34798L23.9911 8.46235C24.4952 8.41552 24.7233 8.7423 24.7233 9.34798V23.1652C24.7233 23.7719 24.6317 24.286 23.8068 24.3328L9.58016 25.1727C8.75731 25.2195 8.39172 24.9395 8.39172 24.1923Z" fill="#3F3F3F"/>
<path d="M11.7995 15.983L15.5388 15.8895L15.4394 11.9165C15.4272 11.4289 15.7895 11.0243 16.2483 11.0128L17.0793 10.992C17.5381 10.9805 17.9201 11.3666 17.9323 11.8541L18.0317 15.8271L21.771 15.7336C22.2298 15.7221 22.6118 16.1081 22.624 16.5957L22.6461 17.4785C22.6583 17.9661 22.2961 18.3707 21.8372 18.3822L18.0979 18.4758L18.1973 22.4488C18.2095 22.9363 17.8473 23.341 17.3885 23.3525L16.5575 23.3732C16.0987 23.3847 15.7167 22.9987 15.7045 22.5111L15.6051 18.5381L11.8658 18.6317C11.4069 18.6432 11.0249 18.2571 11.0127 17.7696L10.9907 16.8867C10.9785 16.3992 11.3407 15.9945 11.7995 15.983Z" fill="#3F3F3F"/>
</svg>
