<svg xmlns="http://www.w3.org/2000/svg"  viewBox="0 0 128 128"><path fill="#e8c79c" d="M60.8,1.178A62.988,62.988,0,0,1,124.823,42.52,9.841,9.841,0,0,1,117.58,55.4c-23.154,5.047-39.5,17.383-39.518,31.785-.006,7.21,4.072,13.9,11.046,19.424a9.853,9.853,0,0,1-2.931,16.957A63.01,63.01,0,1,1,60.8,1.178Z"/><path fill="#d8b18c" d="M88.909,117.494a9.45,9.45,0,0,0,3.822-2.449,9.728,9.728,0,0,1-6.553,8.519A63.053,63.053,0,0,1,2.771,59.378,61.873,61.873,0,0,1,9.5,35.4a61.826,61.826,0,0,0-4.01,17.911,63.065,63.065,0,0,0,83.423,64.186Z" opacity=".5"/><path fill="#2f3a5a" d="M65.6,128h-.058a64.228,64.228,0,0,1-46.811-20.413A63.507,63.507,0,0,1,1.77,59.306,64.191,64.191,0,0,1,60.724.181l.074,1-.074-1a64.3,64.3,0,0,1,65.04,42,10.662,10.662,0,0,1-.711,8.781,10.958,10.958,0,0,1-7.26,5.412C94.639,61.419,79.074,73.8,79.063,87.181c-.006,6.662,3.683,13.107,10.667,18.639A10.854,10.854,0,0,1,86.5,124.506,63.879,63.879,0,0,1,65.6,128ZM65.453,2.006q-2.282,0-4.581.169A62.182,62.182,0,0,0,3.764,59.448,61.53,61.53,0,0,0,20.2,106.225,62.222,62.222,0,0,0,65.546,126H65.6a61.878,61.878,0,0,0,20.25-3.384,8.854,8.854,0,0,0,2.636-15.229c-7.481-5.925-11.432-12.913-11.425-20.208.013-14.567,15.833-27.426,40.3-32.761a8.96,8.96,0,0,0,5.935-4.425,8.664,8.664,0,0,0,.581-7.133A62.291,62.291,0,0,0,65.453,2.006Z"/><circle cx="53.332" cy="27.254" r="9.632" fill="#84879c"/><circle cx="89.801" cy="33.777" r="9.632" fill="#ffc943"/><path fill="#2f3a5a" d="M89.8,44.409a10.632,10.632,0,1,1,10.633-10.632A10.644,10.644,0,0,1,89.8,44.409Zm0-19.264a8.632,8.632,0,1,0,8.633,8.632A8.641,8.641,0,0,0,89.8,25.145Z"/><circle cx="29.879" cy="56.146" r="9.632" fill="#6fc682"/><path fill="#2f3a5a" d="M29.879,66.778A10.632,10.632,0,1,1,40.511,56.146,10.644,10.644,0,0,1,29.879,66.778Zm0-19.264a8.632,8.632,0,1,0,8.632,8.632A8.641,8.641,0,0,0,29.879,47.514Z"/><circle cx="43.7" cy="94.492" r="9.632" fill="#e95a6a"/><path fill="#2f3a5a" d="M43.7 105.124A10.632 10.632 0 1154.332 94.492 10.644 10.644 0 0143.7 105.124zm0-19.264a8.632 8.632 0 108.633 8.632A8.641 8.641 0 0043.7 85.86zM53.332 37.886A10.632 10.632 0 1163.964 27.254 10.644 10.644 0 0153.332 37.886zm0-19.264a8.632 8.632 0 108.632 8.632A8.642 8.642 0 0053.332 18.622z"/></svg>