<svg xmlns="http://www.w3.org/2000/svg" width="512" height="512" viewBox="0 0 74 74"><g data-name="line color"><path fill="#9297ab" d="m20.571 53.755a7.007 7.007 0 0 1 4.706-5.966l5.041-1.977c1.734 1.665 3.85 3.145 6.035 3.145h1.295c2.2 0 4.336-1.468 6.07-3.133l5.006 1.965a7.007 7.007 0 0 1 4.706 5.966q-16.43 14.367-32.859 0z"/><path fill="#84879c" d="m46.723 49.2a7.006 7.006 0 0 1 4.706 5.966c-.747.654-1.495 1.253-2.242 1.818a37.231 37.231 0 0 0 4.242-3.224 7.006 7.006 0 0 0 -4.706-5.966l-5.006-1.966a16.538 16.538 0 0 1 -1.784 1.491z"/><path fill="#fcd462" d="m46.225 34.595v.678a12.033 12.033 0 0 1 -2.88 7.347c-1.4 1.638-3.579 3.746-5.875 3.746h-.95c-2.275 0-4.446-2.139-5.865-3.746a9.831 9.831 0 0 1 -2.891-7.347v-.678a.282.282 0 0 0 .156.031.538.538 0 0 0 .553-.4l.5-2.358.157-.49c4.863-1.158 8.672-1.3 10.561-4.206a11.464 11.464 0 0 0 4.08 3.141 3.009 3.009 0 0 1 1.567 2.087 8.05 8.05 0 0 1 .146 1.826.577.577 0 0 0 .564.4.531.531 0 0 0 .177-.031z"/><path fill="#f7be56" d="m46.05 34.63a.6.6 0 0 1 -.57-.4 8.437 8.437 0 0 0 -.14-1.83 2.993 2.993 0 0 0 -1.57-2.08c-.137-.073-.248-.143-.376-.215a22.476 22.476 0 0 1 .666 5.314v.013a9.375 9.375 0 0 1 -.363 2.747 12.7 12.7 0 0 1 -2.417 4.441c-1.28 1.5-3.23 3.38-5.31 3.68a3.307 3.307 0 0 0 .55.07h.95c2.3 0 4.48-2.11 5.87-3.75a12.015 12.015 0 0 0 2.88-7.35v-.68a.354.354 0 0 1 -.17.04z"/><path fill="#707583" d="m47.352 30.326-.083 1.357-.678 2.588a.541.541 0 0 1 -.365.324.531.531 0 0 1 -.177.031.577.577 0 0 1 -.564-.4 8.05 8.05 0 0 0 -.146-1.826 3.009 3.009 0 0 0 -1.565-2.087 11.464 11.464 0 0 1 -4.08-3.141c-1.889 2.9-5.7 3.047-10.561 4.206l-.157.49-.5 2.358a.538.538 0 0 1 -.553.4.282.282 0 0 1 -.156-.031.545.545 0 0 1 -.386-.324 10.222 10.222 0 0 1 -.668-2.348c-.031-.094-.052-1.6-.052-1.6a10.35 10.35 0 1 1 20.694 0z"/><path fill="#62667c" d="m37 19.734a10.225 10.225 0 0 0 -8.083 3.99 10.153 10.153 0 0 1 6.712-2.539 10.477 10.477 0 0 1 10.352 10.592l-.081 1.357-.33 1.26a.6.6 0 0 0 .48.232.53.53 0 0 0 .177-.031.541.541 0 0 0 .365-.324l.678-2.588.083-1.357a10.477 10.477 0 0 0 -10.353-10.592z"/><path fill="#323c6b" d="m27.08 57.625a.5.5 0 0 1 -.5-.5v-4.687a.5.5 0 0 1 1 0v4.688a.5.5 0 0 1 -.5.499z"/><path fill="#fed19a" d="m46.92 52.438v4.687"/><path fill="#323c6b" d="M46.92 57.625a.5.5 0 01-.5-.5v-4.687a.5.5 0 011 0v4.688a.5.5 0 01-.5.499zM37.469 46.866h-.95c-2.493 0-4.755-2.234-6.239-3.915a10.3 10.3 0 01-3.016-7.694v-.662a.5.5 0 01.641-.48l.75-2.887a.5.5 0 01.36-.334c.986-.235 1.929-.429 2.822-.612 3.507-.72 6.042-1.24 7.436-3.38a.5.5 0 01.417-.227.5.5 0 01.417.225 11.289 11.289 0 003.9 2.975 3.508 3.508 0 011.823 2.438 8.593 8.593 0 01.158 1.765.633.633 0 01.477.1.6.6 0 01.26.423v.678a12.529 12.529 0 01-3 7.67c-2.225 2.597-4.325 3.917-6.256 3.917zm-9.205-11.791v.2a9.4 9.4 0 002.765 7.015c.782.885 3.161 3.578 5.491 3.578h.95c1.624 0 3.473-1.2 5.5-3.571a11.484 11.484 0 002.761-7.022v-.195a1.057 1.057 0 01-.719-.705.5.5 0 01-.021-.163 7.524 7.524 0 00-.137-1.713 2.513 2.513 0 00-1.312-1.743 14.381 14.381 0 01-3.818-2.77c-1.668 2.042-4.351 2.592-7.679 3.275-.8.165-1.641.337-2.517.541l-.071.221-.488 2.31a1 1 0 01-.705.742z"/><path fill="#323c6b" d="M46.047 35.126a1.073 1.073 0 01-1.042-.751.5.5 0 01-.021-.163 7.524 7.524 0 00-.137-1.713 2.513 2.513 0 00-1.312-1.743 14.381 14.381 0 01-3.818-2.77c-1.668 2.042-4.351 2.592-7.679 3.275-.8.165-1.641.337-2.517.541l-.071.221-.488 2.31a1.036 1.036 0 01-1.042.793.815.815 0 01-.333-.06 1.05 1.05 0 01-.667-.595 10.723 10.723 0 01-.7-2.472 11.217 11.217 0 01-.058-1.667 10.85 10.85 0 1121.694-.007v.031l-.083 1.357-.699 2.687a1.056 1.056 0 01-.7.674 1.025 1.025 0 01-.327.052zm-.06-1.036l.088.027.709-2.562.067-1.243a9.85 9.85 0 10-19.694.013c.009.626.027 1.385.043 1.506a9.784 9.784 0 00.638 2.247.342.342 0 01.069.022l.747-2.873a.5.5 0 01.36-.334c.986-.235 1.929-.429 2.822-.612 3.507-.72 6.042-1.24 7.436-3.38a.5.5 0 01.417-.227.5.5 0 01.417.225 11.289 11.289 0 003.9 2.975 3.508 3.508 0 011.823 2.438 8.564 8.564 0 01.158 1.778zM37 61.423q-8.4 0-16.761-7.292a.5.5 0 01-.169-.423 7.518 7.518 0 015.041-6.392l5.021-1.97a.5.5 0 01.529.1c2.077 1.994 3.991 3.005 5.689 3.005h1.295c1.728 0 3.654-1.007 5.724-2.994a.5.5 0 01.529-.1l5.006 1.965a7.51 7.51 0 015.021 6.385.5.5 0 01-.169.423q-8.335 7.293-16.756 7.293zm-15.9-7.873c10.7 9.245 21.11 9.245 31.806 0a6.519 6.519 0 00-4.342-5.288l-4.734-1.856c-2.177 2.025-4.256 3.051-6.183 3.051h-1.294c-1.9 0-3.964-1.03-6.148-3.063l-4.746 1.861a6.53 6.53 0 00-4.359 5.295z"/><path fill="#27ccbc" d="m67.862 51.287a34.008 34.008 0 0 1 -64.83-12.734l11.415-1.245a22.558 22.558 0 0 0 43.745 7.436z"/><path fill="#323c6b" d="m37 71.5a34.424 34.424 0 0 1 -34.468-32.924.5.5 0 0 1 .445-.52l11.415-1.245a.5.5 0 0 1 .554.491 22.058 22.058 0 0 0 42.775 7.271.5.5 0 0 1 .75-.243l9.67 6.542a.5.5 0 0 1 .173.625 34.649 34.649 0 0 1 -31.314 20.003zm-33.445-32.5a33.508 33.508 0 0 0 63.672 12.461l-8.793-5.949a23.058 23.058 0 0 1 -44.474-7.647z"/><path fill="#fe7058" d="m14.436 37a2.986 2.986 0 0 0 .011.308l-11.415 1.245c-.021-.521-.032-1.032-.032-1.553a33.929 33.929 0 0 1 12.117-26.021l7.362 8.755a22.522 22.522 0 0 0 -8.043 17.266z"/><path fill="#323c6b" d="m3.032 39.053a.5.5 0 0 1 -.5-.48c-.021-.528-.032-1.045-.032-1.573a34.449 34.449 0 0 1 12.295-26.4.486.486 0 0 1 .365-.116.5.5 0 0 1 .34.176l7.361 8.755a.5.5 0 0 1 -.061.7 22.032 22.032 0 0 0 -7.864 16.885 2.4 2.4 0 0 0 .008.258.5.5 0 0 1 -.443.547l-11.415 1.245zm12.027-27.367a33.448 33.448 0 0 0 -11.559 25.314c0 .335 0 .666.013 1l10.423-1.136a23.023 23.023 0 0 1 7.841-17.184z"/><path fill="#eeefee" d="m57.106 9.585-7.734 8.543a22.563 22.563 0 0 0 -26.894 1.606l-7.362-8.755a33.993 33.993 0 0 1 41.99-1.394z"/><path fill="#89c5cd" d="m71 37a33.905 33.905 0 0 1 -3.138 14.287l-9.67-6.543a22.254 22.254 0 0 0 1.372-7.744 22.543 22.543 0 0 0 -10.192-18.872l7.734-8.543a33.929 33.929 0 0 1 13.894 27.415z"/><path fill="#e1e6e9" d="m56.828 9.911-2.14 2.36c-.02-.03-.05-.04-.07-.06a34 34 0 0 0 -39.46-.53l-.32-.38a33.982 33.982 0 0 1 41.99-1.39z"/><path fill="#6eaaad" d="m70.718 37.321a33.915 33.915 0 0 1 -3.14 14.29l-1-.68a34.006 34.006 0 0 0 -11.89-38.66l2.14-2.36a33.924 33.924 0 0 1 13.89 27.41z"/><g fill="#323c6b"><path d="M37 60.059a23.062 23.062 0 1123.062-23.059 23.087 23.087 0 01-23.062 23.059zm0-45.123a22.062 22.062 0 1022.062 22.064 22.087 22.087 0 00-22.062-22.064zM9.351 62.114a.5.5 0 01-.374-.167 37.358 37.358 0 01-5.469-8.034.5.5 0 01.894-.45 36.316 36.316 0 005.322 7.819.5.5 0 01-.374.833zM2.587 51.125a.5.5 0 01-.465-.316c-.11-.28-.214-.562-.316-.846a.5.5 0 01.941-.338c.1.274.2.546.306.816a.5.5 0 01-.282.649.507.507 0 01-.184.035zM46.959 1.877a.511.511 0 01-.134-.018c-.225-.063-.453-.118-.68-.171a.5.5 0 01.228-.974c.241.056.481.115.72.181a.5.5 0 01-.133.982zM57.875 6.957a.5.5 0 01-.282-.088 36.4 36.4 0 00-7.975-4.109.5.5 0 01.347-.938 37.384 37.384 0 018.193 4.223.5.5 0 01-.283.912z"/><path d="m22.479 20.234h-.043a.5.5 0 0 1 -.34-.176l-7.362-8.758a.5.5 0 0 1 .061-.7 34.494 34.494 0 0 1 42.605-1.418.5.5 0 0 1 .074.738l-7.734 8.542a.5.5 0 0 1 -.645.083 22.065 22.065 0 0 0 -26.3 1.571.5.5 0 0 1 -.316.118zm-6.655-9.192 6.719 7.991a23.066 23.066 0 0 1 26.744-1.556l7.075-7.814a33.5 33.5 0 0 0 -40.538 1.379z"/><path d="m67.862 51.787a.5.5 0 0 1 -.28-.086l-9.67-6.542a.5.5 0 0 1 -.2-.545 47.5 47.5 0 0 0 1.357-7.664c.82-8.2-4.611-14.886-9.968-18.4a.5.5 0 0 1 -.1-.753l7.735-8.547a.5.5 0 0 1 .667-.068 34.626 34.626 0 0 1 14.097 27.818 34.235 34.235 0 0 1 -3.185 14.5.5.5 0 0 1 -.454.29zm-9.1-7.257 8.885 6.011a33.238 33.238 0 0 0 2.853-13.541 33.626 33.626 0 0 0 -13.328-26.743l-7.042 7.778c5.44 3.759 10.77 10.616 9.932 19.015a49.131 49.131 0 0 1 -1.296 7.48z"/></g><path fill="#fff" d="M57.12 59.394a.726.726 0 01-.07 1.02 25 25 0 01-9.86 5.73.277.277 0 01-.09.01l-.02-.12.01.12a.17.17 0 01-.07.01.725.725 0 01-.17-1.43 22.9 22.9 0 009.25-5.41.737.737 0 01.52-.18.677.677 0 01.5.25zM59.69 57.774a.694.694 0 01-.21.51 2.28 2.28 0 01-.23.23c-.03.03-.08.07-.17.17a.744.744 0 01-.51.2.725.725 0 01-.5-1.25c.1-.09.14-.13.17-.16a2.243 2.243 0 00.2-.19.687.687 0 01.51-.22h.01a.7.7 0 01.5.2.756.756 0 01.23.51z"/></g></svg>