<svg width="24" height="24" viewBox="0 0 24 24" fill="none" xmlns="http://www.w3.org/2000/svg">
<path fill-rule="evenodd" clip-rule="evenodd" d="M15.1783 0.0549453L2.14312 1.03423C1.09318 1.12789 0.726562 1.82827 0.726562 2.66707V17.2252C0.726562 17.8798 0.954678 18.4387 1.50358 19.1859L4.56786 23.2446C5.07093 23.8981 5.5292 24.0386 6.48952 23.9918L21.6266 23.0552C22.9067 22.9615 23.2733 22.3548 23.2733 21.3287V4.95346C23.2733 4.42375 23.0696 4.26972 22.4586 3.81807L22.3568 3.74106L18.1967 0.754286C17.1906 0.0081144 16.7791 -0.0855474 15.1783 0.0549453ZM6.83679 4.68288C5.6015 4.76821 5.32043 4.78695 4.61877 4.2052L2.8295 2.76073C2.64823 2.57445 2.73886 2.34446 3.19611 2.2945L15.7272 1.35788C16.7791 1.26422 17.328 1.63887 17.7395 1.9646L19.8892 3.55165C19.9799 3.59848 20.209 3.87739 19.934 3.87739L6.9926 4.67455L6.83679 4.68288ZM5.39172 21.1923V7.28459C5.39172 6.67787 5.57401 6.39793 6.12291 6.34798L20.9911 5.46235C21.4952 5.41552 21.7233 5.7423 21.7233 6.34798V20.1652C21.7233 20.7719 21.6317 21.286 20.8068 21.3328L6.58016 22.1727C5.75731 22.2195 5.39172 21.9395 5.39172 21.1923Z" />
<path d="M8.79952 12.983L12.5388 12.8895L12.4394 8.91645C12.4272 8.42893 12.7895 8.02425 13.2483 8.01278L14.0793 7.99199C14.5381 7.98051 14.9201 8.36657 14.9323 8.85409L15.0317 12.8271L18.771 12.7336C19.2298 12.7221 19.6118 13.1081 19.624 13.5957L19.6461 14.4785C19.6583 14.9661 19.2961 15.3707 18.8372 15.3822L15.0979 15.4758L15.1973 19.4488C15.2095 19.9363 14.8473 20.341 14.3885 20.3525L13.5575 20.3732C13.0987 20.3847 12.7167 19.9987 12.7045 19.5111L12.6051 15.5381L8.86578 15.6317C8.40694 15.6432 8.02493 15.2571 8.01274 14.7696L7.99065 13.8867C7.97846 13.3992 8.34068 12.9945 8.79952 12.983Z" />
</svg>
