<svg xmlns="http://www.w3.org/2000/svg"  viewBox="0 0 74 74"><g><path fill="#fcd462" d="m22.274 31.272a3.69 3.69 0 0 1 -3.5-3.851 3.69 3.69 0 0 1 3.5-3.851"/><path fill="#323c6b" d="m22.274 31.771a4.193 4.193 0 0 1 -4-4.351 4.193 4.193 0 0 1 4-4.351.5.5 0 0 1 0 1 3.2 3.2 0 0 0 -3 3.351 3.2 3.2 0 0 0 3 3.351.5.5 0 0 1 0 1z"/><path fill="#fcd462" d="m52.059 31.272a3.69 3.69 0 0 0 3.5-3.851 3.69 3.69 0 0 0 -3.5-3.851"/><path fill="#323c6b" d="m52.059 31.771a.5.5 0 0 1 0-1 3.2 3.2 0 0 0 3-3.351 3.2 3.2 0 0 0 -3-3.351.5.5 0 0 1 0-1 4.193 4.193 0 0 1 4 4.351 4.193 4.193 0 0 1 -4 4.351z"/><path fill="#eeefee" d="m29.666 44.974c-18.161 1.613-22.766 15.465-22.766 20.711v4.892h60.208v-4.892c0-5.246-4.6-19.1-22.764-20.711"/><path fill="#fcd462" d="m44.045 43-.014 2.063a7.025 7.025 0 0 1 -7.025 7.025 7.025 7.025 0 0 1 -7.025-7.025l.038-2.183"/><path fill="#323c6b" d="m37.005 52.592a7.534 7.534 0 0 1 -7.525-7.525l.038-2.191a.5.5 0 1 1 1 .018l-.038 2.183a6.525 6.525 0 0 0 13.051-.009l.014-2.068a.5.5 0 0 1 .5-.5.5.5 0 0 1 .5.5l-.014 2.063a7.533 7.533 0 0 1 -7.526 7.529z"/><path fill="#69b0ee" d="m18.97 58.74h36.071a3.059 3.059 0 0 1 3.059 3.06v8.778a0 0 0 0 1 0 0h-42.189a0 0 0 0 1 0 0v-8.778a3.059 3.059 0 0 1 3.059-3.06z"/><path fill="#e0e0e0" d="m49.905 45.945v1.063c10.935 4.431 13.988 14.406 13.988 18.677v1.78h-56.993v3.113h60.208v-4.893c0-4.662-3.644-16.116-17.203-19.74z"/><path fill="#05afd6" d="m18.97 58.74h36.071a3.059 3.059 0 0 1 3.059 3.06v8.778a0 0 0 0 1 0 0h-42.189a0 0 0 0 1 0 0v-8.778a3.059 3.059 0 0 1 3.059-3.06z"/><path fill="#27a2db" d="m15.911 67.528h42.189v3.049h-42.189z"/><path fill="#27a2db" d="m55.854 61.846v5.961h2.246v-5.961a3.106 3.106 0 0 0 -3.106-3.106h-2.246a3.106 3.106 0 0 1 3.106 3.106z"/><path fill="#05afd6" d="m53.375 47.111v11.629h-4v-12.94a27.628 27.628 0 0 1 4 1.311z"/><path fill="#323c6b" d="m53.375 59.24h-4a.5.5 0 0 1 -.5-.5v-12.94a.5.5 0 0 1 .623-.484 27.935 27.935 0 0 1 4.07 1.336.5.5 0 0 1 .3.46v11.628a.5.5 0 0 1 -.493.5zm-3.5-1h3v-10.8a26.469 26.469 0 0 0 -3-1z"/><path fill="#05afd6" d="m20.636 47.111v11.629h4v-12.94a27.628 27.628 0 0 0 -4 1.311z"/><path fill="#323c6b" d="M24.633 59.24h-4a.5.5 0 01-.5-.5v-11.629a.5.5 0 01.3-.46 27.955 27.955 0 014.07-1.336.494.494 0 01.43.09.5.5 0 01.193.395v12.94a.5.5 0 01-.493.5zm-3.5-1h3v-11.792a26.556 26.556 0 00-3 1zM6.533 56.45a.491.491 0 01-.231-.057.5.5 0 01-.211-.674 25.588 25.588 0 015.273-6.928.5.5 0 01.681.733 24.587 24.587 0 00-5.068 6.658.5.5 0 01-.444.268zM13.7 48.015a.5.5 0 01-.3-.9l.44-.334a.5.5 0 11.6.8l-.44.334a.5.5 0 01-.3.1z"/><path fill="#fcd462" d="m35.565 45.8h2.8a9.333 9.333 0 0 0 5.881-1.784c3.977-3.056 7.812-8.815 7.812-13.993v-11.323h-29.784v11.323c0 5.177 3.835 10.936 7.812 13.993a8.968 8.968 0 0 0 5.479 1.784z"/><path fill="#f7be56" d="m49.648 18.7v11.323c0 5.177-3.835 10.936-7.812 13.993a9.333 9.333 0 0 1 -5.882 1.784h2.411a9.333 9.333 0 0 0 5.881-1.784c3.977-3.056 7.812-8.815 7.812-13.993v-11.323z"/><g fill="#323c6b"><path d="M53.693 34.271a.489.489 0 01-.091-.008.5.5 0 01-.4-.583l.052-.29.989.149-.058.323a.5.5 0 01-.492.409zM50.368 41.806a.5.5 0 01-.409-.787 20.518 20.518 0 002.731-5.349.5.5 0 01.95.311 21.509 21.509 0 01-2.862 5.612.5.5 0 01-.41.213zM67.108 71.078h-60.208a.5.5 0 01-.5-.5v-4.893c0-4.967 4.266-19.526 23.22-21.209a.494.494 0 01.542.454.5.5 0 01-.454.542c-18.208 1.617-22.308 15.483-22.308 20.213v4.393h59.208v-4.393c0-4.73-4.1-18.6-22.309-20.213a.5.5 0 11.089-1c18.954 1.683 23.22 16.242 23.22 21.209v4.893a.5.5 0 01-.5.504z"/><path d="M58.1 71.078h-42.189a.5.5 0 01-.5-.5v-8.778a3.563 3.563 0 013.559-3.56h36.072a3.563 3.563 0 013.558 3.56v8.778a.5.5 0 01-.5.5zm-41.689-1h41.189v-8.278a2.562 2.562 0 00-2.559-2.559h-36.071a2.562 2.562 0 00-2.559 2.559zM38.366 46.3h-2.8a9.514 9.514 0 01-5.784-1.888c-3.979-3.058-8.007-8.982-8.007-14.389v-11.323a.5.5 0 01.5-.5h29.784a.5.5 0 01.5.5v11.323c0 5.407-4.028 11.332-8.007 14.389a9.769 9.769 0 01-6.186 1.888zm-15.592-27.1v10.823c0 5.083 3.832 10.688 7.616 13.6a8.508 8.508 0 005.175 1.677h2.8a8.811 8.811 0 005.577-1.681c3.785-2.909 7.617-8.513 7.617-13.6v-10.819z"/></g><path fill="#fff" d="M28 37.674a.659.659 0 01-.557-.3l-.092-.142c-.059-.09-.09-.139-.186-.3a.66.66 0 011.134-.674c.082.137.109.178.159.255l.1.151a.66.66 0 01-.558 1.01zM26.666 35.265a.66.66 0 01-.6-.38 15.023 15.023 0 01-1.561-6.339.66.66 0 011.32 0 13.921 13.921 0 001.436 5.779.661.661 0 01-.6.94z"/><path fill="#05afd6" d="m39.458 3.865a14.9 14.9 0 0 1 12.606 14.712v1.163h-29.791v-1.163a14.89 14.89 0 0 1 12.6-14.712"/><path fill="#323c6b" d="m52.064 20.24h-29.791a.5.5 0 0 1 -.5-.5v-1.163a15.483 15.483 0 0 1 13.019-15.206.5.5 0 0 1 .152.988 14.475 14.475 0 0 0 -12.171 14.218v.663h28.791v-.663a14.4 14.4 0 0 0 -12.182-14.218.5.5 0 1 1 .152-.988 15.4 15.4 0 0 1 13.03 15.206v1.163a.5.5 0 0 1 -.5.5z"/><path fill="#323c6b" d="m53.324 20.236h-32.316a.5.5 0 0 1 0-1h32.316a.5.5 0 0 1 0 1z"/><path fill="#27a2db" d="m22.274 19.736h29.785c0 2.95-2.746 5.342-6.133 5.342h-17.52c-3.387 0-6.133-2.392-6.133-5.342z"/><path fill="#323c6b" d="m45.926 25.578h-17.52c-3.657 0-6.632-2.621-6.632-5.842a.5.5 0 0 1 .5-.5h29.785a.5.5 0 0 1 .5.5c0 3.222-2.976 5.842-6.633 5.842zm-23.126-5.342c.292 2.436 2.693 4.342 5.6 4.342h17.52c2.91 0 5.311-1.906 5.6-4.342z"/><path fill="#419be9" d="m34.868 10.655v-7.345a.733.733 0 0 1 .733-.733h3.124a.733.733 0 0 1 .733.733v7.335"/><path fill="#323c6b" d="m34.868 11.155a.5.5 0 0 1 -.5-.5v-7.345a1.234 1.234 0 0 1 1.232-1.232h3.124a1.234 1.234 0 0 1 1.234 1.232v7.335a.5.5 0 0 1 -1 0v-7.335a.233.233 0 0 0 -.233-.232h-3.125a.233.233 0 0 0 -.233.232v7.345a.5.5 0 0 1 -.499.5z"/><path fill="#27a2db" d="m22.744 14.867h11.014l.021-2.756h-10.029a13.947 13.947 0 0 0 -1.006 2.756z"/><path fill="#323c6b" d="m33.757 15.367h-11.013a.5.5 0 0 1 -.486-.619 14.546 14.546 0 0 1 1.042-2.854.5.5 0 0 1 .45-.283h10.028a.5.5 0 0 1 .5.5l-.021 2.756a.5.5 0 0 1 -.5.5zm-10.358-1h9.862l.013-1.756h-9.206a13.843 13.843 0 0 0 -.668 1.756z"/><path fill="#27a2db" d="m51.588 14.867h-11.013l-.021-2.756h10.028a13.947 13.947 0 0 1 1.006 2.756z"/><path fill="#323c6b" d="m51.588 15.367h-11.013a.5.5 0 0 1 -.5-.5l-.021-2.756a.5.5 0 0 1 .5-.5h10.029a.5.5 0 0 1 .45.283 14.526 14.526 0 0 1 1.042 2.855.5.5 0 0 1 -.486.618zm-10.517-1h9.862a13.9 13.9 0 0 0 -.668-1.756h-9.207z"/><circle cx="37.166" cy="13.507" r="4.102" fill="#eeefee"/><path fill="#323c6b" d="m37.167 18.11a4.6 4.6 0 1 1 4.6-4.6 4.607 4.607 0 0 1 -4.6 4.6zm0-8.205a3.6 3.6 0 1 0 3.6 3.6 3.607 3.607 0 0 0 -3.6-3.605z"/></g></svg>